<svg width="455" height="144" viewBox="0 0 455 144" fill="none" xmlns="http://www.w3.org/2000/svg">
<mask id="mask0_33_25" style="mask-type:alpha" maskUnits="userSpaceOnUse" x="0" y="0" width="455" height="144">
<mask id="path-1-inside-1_33_25" fill="white">
<path d="M0 10C0 4.47715 4.47715 0 10 0H445C450.523 0 455 4.47715 455 10V134C455 139.523 450.523 144 445 144H10C4.47715 144 0 139.523 0 134V10Z"/>
</mask>
<path d="M0 10C0 4.47715 4.47715 0 10 0H445C450.523 0 455 4.47715 455 10V134C455 139.523 450.523 144 445 144H10C4.47715 144 0 139.523 0 134V10Z" fill="#276665"/>
<path d="M-4 10C-4 2.26801 2.26801 -4 10 -4H451C458.732 -4 465 2.26801 465 10H445C445 6.68629 445 4 445 4H10C6.68629 4 4 6.68629 4 10H-4ZM465 134C465 145.046 456.046 154 445 154H10C2.26801 154 -4 147.732 -4 140L4 134C4 134 6.68629 134 10 134H445H465ZM10 154C2.26801 154 -4 147.732 -4 140V10C-4 2.26801 2.26801 -4 10 -4V4C6.68629 4 4 6.68629 4 10V134C4 134 6.68629 134 10 134V154ZM451 -4C458.732 -4 465 2.26801 465 10V134C465 145.046 456.046 154 445 154V134V10C445 6.68629 445 4 445 4L451 -4Z" fill="black" mask="url(#path-1-inside-1_33_25)"/>
</mask>
<g mask="url(#mask0_33_25)">
<mask id="path-3-inside-2_33_25" fill="white">
<path d="M0 10C0 4.47715 4.47715 0 10 0H445C450.523 0 455 4.47715 455 10V134C455 139.523 450.523 144 445 144H10C4.47715 144 0 139.523 0 134V10Z"/>
</mask>
<path d="M0 10C0 4.47715 4.47715 0 10 0H445C450.523 0 455 4.47715 455 10V134C455 139.523 450.523 144 445 144H10C4.47715 144 0 139.523 0 134V10Z" fill="#276665"/>
<path d="M-4 10C-4 2.26801 2.26801 -4 10 -4H451C458.732 -4 465 2.26801 465 10H445C445 6.68629 445 4 445 4H10C6.68629 4 4 6.68629 4 10H-4ZM465 134C465 145.046 456.046 154 445 154H10C2.26801 154 -4 147.732 -4 140L4 134C4 134 6.68629 134 10 134H445H465ZM10 154C2.26801 154 -4 147.732 -4 140V10C-4 2.26801 2.26801 -4 10 -4V4C6.68629 4 4 6.68629 4 10V134C4 134 6.68629 134 10 134V154ZM451 -4C458.732 -4 465 2.26801 465 10V134C465 145.046 456.046 154 445 154V134V10C445 6.68629 445 4 445 4L451 -4Z" fill="black" mask="url(#path-3-inside-2_33_25)"/>
<g style="mix-blend-mode:soft-light">
<path fill-rule="evenodd" clip-rule="evenodd" d="M13.7269 0C9.07818 10.6212 7.84301 22.9035 11.2374 35.2306L20.2803 68.0705C26.6126 91.0668 47.5262 107 71.3784 107H433C440.849 107 448.299 105.294 455 102.232V134C455 139.523 450.523 144 445 144H10C4.47715 144 0 139.523 0 134V10C0 4.47715 4.47715 0 10 0H13.7269Z" fill="black" fill-opacity="0.22"/>
</g>
<path d="M105.639 93.771C104.483 93.9237 103.12 94 101.549 94C99.3465 94 97.111 93.9237 94.8428 93.771C92.5964 93.5965 91.0369 93.4984 90.1646 93.4766C88.856 93.4548 87.6673 93.193 86.5986 92.6914C85.5299 92.168 84.8211 91.3937 84.4722 90.3687C84.145 89.2782 83.8724 87.7624 83.6543 85.8213C83.4362 83.8584 83.2726 81.6229 83.1636 79.1147C83.0545 76.6066 83 74.033 83 71.394C83 68.7769 83.0545 66.2142 83.1636 63.7061C83.2726 61.1979 83.4362 58.9624 83.6543 56.9995C83.8724 55.0366 84.145 53.5099 84.4722 52.4194C84.8211 51.3944 85.5627 50.631 86.6968 50.1294C87.8309 49.606 89.0522 49.3442 90.3608 49.3442H90.7207C91.2878 49.366 92.291 49.366 93.7305 49.3442C95.1917 49.3006 96.7839 49.2788 98.5068 49.2788C99.8809 49.2788 101.244 49.3006 102.596 49.3442C105.039 49.3442 107.307 49.6278 109.401 50.1948C111.516 50.7619 113.327 51.4489 114.832 52.2559C116.358 53.0628 117.449 53.8371 118.103 54.5786C119.281 55.9308 120.131 57.2939 120.655 58.668C121.2 60.0202 121.473 61.3833 121.473 62.7573C121.473 64.2186 121.2 65.6799 120.655 67.1411C120.131 68.5806 119.412 69.9873 118.496 71.3613C119.542 72.6263 120.295 73.9131 120.753 75.2217C121.233 76.5085 121.473 77.7952 121.473 79.082C121.473 80.7178 121.146 82.3317 120.491 83.9238C119.859 85.516 118.986 87.0645 117.874 88.5693C116.805 90.0088 115.181 91.1756 113 92.0698C110.819 92.9422 108.365 93.5093 105.639 93.771ZM105.639 81.0122C106.882 80.4451 107.493 79.5946 107.471 78.4604C107.449 77.3045 106.838 76.4976 105.639 76.0396C104.744 75.7996 103.534 75.647 102.007 75.5815C100.481 75.4943 99.3029 75.647 98.4741 76.0396C98.0161 76.3449 97.6999 76.8356 97.5254 77.5117C97.3727 78.1878 97.3727 78.8639 97.5254 79.54C97.6999 80.2161 98.0161 80.7069 98.4741 81.0122C99.3029 81.4266 100.481 81.612 102.007 81.5684C103.556 81.5247 104.766 81.3394 105.639 81.0122ZM104.723 67.0103C106.162 66.5086 106.882 65.6908 106.882 64.5566C106.882 63.4007 106.162 62.561 104.723 62.0376C103.872 61.7977 102.814 61.645 101.549 61.5796C100.284 61.4924 99.2593 61.645 98.4741 62.0376C98.0161 62.3429 97.6999 62.8337 97.5254 63.5098C97.3727 64.1859 97.3727 64.862 97.5254 65.5381C97.6999 66.2142 98.0161 66.7049 98.4741 67.0103C99.2593 67.4028 100.284 67.5664 101.549 67.501C102.814 67.4355 103.872 67.272 104.723 67.0103ZM144.504 80.8813C145.376 80.8813 146.107 80.6742 146.696 80.2598C147.306 79.8236 147.808 79.2238 148.201 78.4604C148.593 77.6753 148.899 76.7702 149.117 75.7451C149.335 74.6982 149.487 73.575 149.575 72.3755C149.662 71.1759 149.716 69.9328 149.738 68.646C149.76 67.3374 149.76 66.0288 149.738 64.7202C149.716 63.4116 149.706 62.1466 149.706 60.9253C149.706 59.7039 149.738 58.5698 149.804 57.5229C149.869 56.4543 149.978 55.5164 150.131 54.7095C150.305 53.9025 150.556 53.2591 150.883 52.7793C151.581 51.8415 152.65 51.1108 154.089 50.5874C155.551 50.064 157.023 49.8022 158.506 49.8022C159.88 49.8022 161.079 50.0422 162.104 50.522C163.151 51.0018 163.773 51.7542 163.969 52.7793C164.144 53.8698 164.34 55.5164 164.558 57.7192C164.798 59.922 164.918 62.4193 164.918 65.2109C164.918 67.6755 164.754 70.249 164.427 72.9316C164.122 75.6143 163.544 78.2096 162.693 80.7178C161.865 83.2041 160.687 85.4505 159.16 87.457C157.633 89.4417 155.681 91.0339 153.304 92.2334C150.927 93.4111 148.026 94 144.602 94H144.471C140.131 93.9128 136.609 92.8986 133.904 90.9575C131.2 88.9946 129.128 86.4756 127.688 83.4004C126.271 80.3034 125.3 76.9883 124.777 73.4551C124.275 69.9219 124.024 66.5959 124.024 63.4771C124.024 61.0562 124.101 58.9079 124.253 57.0322C124.428 55.1566 124.581 53.7389 124.711 52.7793C124.886 51.7542 125.486 51.0018 126.511 50.522C127.558 50.0422 128.768 49.8022 130.142 49.8022C131.625 49.8022 133.097 50.064 134.559 50.5874C136.02 51.1108 137.099 51.8415 137.797 52.7793C138.43 53.7607 138.801 55.3311 138.91 57.4902C139.041 59.6276 139.095 62.0158 139.073 64.6548C139.051 67.2938 139.139 69.8455 139.335 72.3101C139.531 74.7528 140.011 76.7811 140.774 78.395C141.56 79.9871 142.803 80.8159 144.504 80.8813ZM194.558 79.2783C194.165 80.696 194.154 82.2772 194.525 84.022C194.896 85.7668 195.19 87.4025 195.408 88.9292C195.648 90.4341 195.365 91.5791 194.558 92.3643C193.86 92.9095 192.78 93.3239 191.319 93.6074C189.879 93.8691 188.342 94 186.706 94C185.07 94 183.522 93.8691 182.061 93.6074C180.621 93.3239 179.552 92.9095 178.854 92.3643C178.048 91.5791 177.753 90.4341 177.971 88.9292C178.211 87.4025 178.516 85.7668 178.887 84.022C179.258 82.2772 179.247 80.696 178.854 79.2783C178.396 77.9479 177.666 76.3667 176.663 74.5347C175.659 72.6808 174.536 70.7179 173.293 68.646C172.072 66.5522 170.883 64.5021 169.727 62.4956C168.593 60.4891 167.644 58.6789 166.881 57.0649C166.139 55.4292 165.769 54.1533 165.769 53.2373V53.1064C165.856 52.1904 166.325 51.547 167.175 51.1763C168.026 50.7837 169.084 50.5874 170.349 50.5874C171.199 50.5874 172.093 50.6637 173.031 50.8164C173.969 50.9473 174.885 51.1326 175.779 51.3726C176.674 51.6125 177.502 51.8851 178.266 52.1904C179.029 52.474 179.661 52.7793 180.163 53.1064C180.861 53.5645 181.461 54.2951 181.962 55.2983C182.486 56.3016 182.944 57.4248 183.336 58.668C183.751 59.8893 184.122 61.078 184.449 62.2339C184.798 63.368 185.147 64.3167 185.496 65.0801C185.866 65.8216 186.27 66.1924 186.706 66.1924C187.251 66.1924 187.731 65.6253 188.146 64.4912C188.582 63.3571 189.029 62.0158 189.487 60.4673C189.945 58.9188 190.468 57.4575 191.057 56.0835C191.646 54.6877 192.377 53.6953 193.249 53.1064C193.947 52.6702 194.841 52.2668 195.932 51.896C197.044 51.5034 198.222 51.1872 199.465 50.9473C200.73 50.7074 201.94 50.5874 203.096 50.5874C204.339 50.5874 205.386 50.7837 206.237 51.1763C207.109 51.547 207.578 52.1904 207.644 53.1064V53.2373C207.644 54.3714 207.076 56.0508 205.942 58.2754C204.808 60.5 203.467 62.9209 201.918 65.5381C200.37 68.1553 198.898 70.6852 197.502 73.1279C196.128 75.5488 195.146 77.599 194.558 79.2783ZM241.961 73.5859C241.678 73.5859 241.525 73.9458 241.503 74.6655C241.503 75.3853 241.569 76.3231 241.7 77.479C241.831 78.6349 241.972 79.889 242.125 81.2412C242.299 82.5934 242.441 83.9238 242.55 85.2324C242.659 86.541 242.681 87.7188 242.616 88.7656C242.55 89.7907 242.332 90.554 241.961 91.0557C241.329 91.8626 240.293 92.506 238.854 92.9858C237.414 93.4657 235.931 93.7056 234.404 93.7056C233.118 93.7056 231.962 93.4984 230.937 93.084C229.911 92.6696 229.224 91.9935 228.875 91.0557C228.308 89.2236 227.861 86.3883 227.534 82.5498C227.229 78.6895 227.076 74.6219 227.076 70.3472C227.076 67.7518 227.142 65.2327 227.272 62.79C227.403 60.3473 227.6 58.1772 227.861 56.2798C228.123 54.3605 228.461 52.8665 228.875 51.7979C229.333 50.7292 230.086 49.9658 231.133 49.5078C232.18 49.0498 233.379 48.8208 234.731 48.8208C236.433 48.8208 238.177 49.1152 239.966 49.7041C241.776 50.2712 243.314 50.9691 244.579 51.7979C245.124 52.1686 245.669 52.703 246.214 53.4009C246.76 54.077 247.294 54.8621 247.817 55.7563C248.341 56.6506 248.853 57.5993 249.355 58.6025C249.857 59.6058 250.336 60.609 250.794 61.6123C251.274 62.6156 251.721 63.5752 252.136 64.4912C252.55 65.4072 252.932 66.2251 253.281 66.9448C253.652 67.6427 253.979 68.1989 254.262 68.6133C254.568 69.0277 254.829 69.2349 255.047 69.2349C255.484 69.2349 255.636 68.4824 255.505 66.9775C255.375 65.4727 255.167 63.6842 254.884 61.6123C254.6 59.5404 254.426 57.5884 254.36 55.7563C254.317 53.9025 254.546 52.583 255.047 51.7979C255.702 50.9909 256.749 50.3475 258.188 49.8677C259.627 49.366 261.111 49.1152 262.637 49.1152C263.902 49.1152 265.047 49.3333 266.072 49.7695C267.097 50.1839 267.784 50.86 268.133 51.7979C268.722 53.6299 269.169 56.4761 269.475 60.3364C269.78 64.175 269.933 68.2316 269.933 72.5063C269.933 75.1017 269.867 77.6208 269.736 80.0635C269.627 82.5062 269.431 84.6872 269.147 86.6064C268.886 88.5039 268.548 89.987 268.133 91.0557C267.697 92.1025 266.956 92.855 265.909 93.313C264.862 93.771 263.662 94 262.31 94C260.609 94 258.853 93.7165 257.043 93.1494C255.233 92.5824 253.695 91.8844 252.43 91.0557C251.34 90.2487 250.26 88.9292 249.191 87.0972C248.145 85.2651 247.152 83.3132 246.214 81.2412C245.277 79.1693 244.437 77.3809 243.695 75.876C242.976 74.3493 242.398 73.5859 241.961 73.5859ZM278.308 56.4761C280.859 53.9461 283.466 52.1577 286.126 51.1108C288.809 50.0422 291.415 49.5078 293.945 49.5078C296.672 49.5078 299.223 49.9549 301.601 50.8491C303.978 51.7433 306.006 52.8229 307.686 54.0879C309.387 55.3529 310.608 56.5742 311.35 57.752C312.658 59.8675 313.618 62.0049 314.229 64.1641C314.839 66.3232 315.145 68.4824 315.145 70.6416C315.145 73.2152 314.774 75.756 314.032 78.2642C313.312 80.7723 312.342 83.215 311.121 85.5923C309.659 88.2531 307.337 90.325 304.152 91.8081C300.968 93.2694 297.533 94 293.847 94C291.426 94 289.038 93.6619 286.683 92.9858C284.349 92.2879 282.222 91.2083 280.303 89.7471C277.686 87.6969 275.712 85.1016 274.382 81.9609C273.073 78.7985 272.419 75.5161 272.419 72.1138C272.419 69.1912 272.899 66.3669 273.858 63.6406C274.84 60.9144 276.323 58.5262 278.308 56.4761ZM288.482 67.0757C287.021 68.6242 286.355 70.4998 286.486 72.7026C286.617 74.8836 287.5 76.6393 289.136 77.9697C290.903 79.1475 292.855 79.5837 294.992 79.2783C297.151 78.973 298.678 78.0788 299.572 76.5957C300.357 75.1562 300.805 73.6623 300.914 72.1138C301.023 70.5435 300.597 69.0059 299.638 67.501C299.223 66.8249 298.416 66.1924 297.217 65.6035C296.039 64.9928 294.665 64.7311 293.095 64.8184C291.546 64.9056 290.009 65.658 288.482 67.0757ZM332.189 68.6787C332.56 68.6787 332.832 67.9808 333.007 66.585C333.203 65.1891 333.389 63.5316 333.563 61.6123C333.759 59.693 334.032 57.8828 334.381 56.1816C334.73 54.4805 335.253 53.2591 335.951 52.5176C336.671 51.8415 337.62 51.3398 338.797 51.0127C339.975 50.6637 341.207 50.4893 342.494 50.4893C343.781 50.4893 345.013 50.6637 346.191 51.0127C347.369 51.3398 348.317 51.8415 349.037 52.5176C349.735 53.2591 350.258 54.4805 350.607 56.1816C350.956 57.8828 351.218 59.693 351.393 61.6123C351.589 63.5316 351.774 65.1891 351.949 66.585C352.145 67.9808 352.429 68.6787 352.799 68.6787C353.105 68.6787 353.388 68.2098 353.65 67.272C353.912 66.3341 354.184 65.1673 354.468 63.7715C354.751 62.3538 355.068 60.8926 355.417 59.3877C355.765 57.861 356.158 56.4761 356.594 55.2329C357.052 53.9897 357.587 53.0846 358.197 52.5176C359.113 51.7542 360.4 51.1217 362.058 50.6201C363.715 50.0967 365.318 49.835 366.867 49.835C368.088 49.835 369.124 50.0422 369.975 50.4565C370.847 50.8491 371.283 51.5361 371.283 52.5176C371.283 54.6986 370.487 58.5153 368.895 63.9678C367.325 69.4202 365.525 74.8182 363.497 80.1616C361.491 85.4832 359.724 89.3545 358.197 91.7754C357.674 92.5387 356.932 93.084 355.973 93.4111C355.035 93.7383 354.01 93.9019 352.897 93.9019C351.916 93.9019 350.913 93.8037 349.888 93.6074C348.884 93.3893 347.968 93.1276 347.14 92.8223C346.311 92.4951 345.635 92.1462 345.111 91.7754C344.588 91.3828 344.184 90.7612 343.901 89.9106C343.639 89.0382 343.443 88.0786 343.312 87.0317C343.181 85.9631 343.083 84.938 343.018 83.9565C342.974 82.9751 342.919 82.1681 342.854 81.5356C342.789 80.8813 342.669 80.5542 342.494 80.5542C342.276 80.5542 342.134 81.0449 342.069 82.0264C342.003 82.986 341.927 84.131 341.84 85.4614C341.753 86.7918 341.556 88.0568 341.251 89.2563C340.967 90.4341 340.509 91.2738 339.877 91.7754C339.07 92.3424 337.936 92.8441 336.475 93.2803C335.035 93.6947 333.574 93.9019 332.091 93.9019C330.979 93.9019 329.943 93.7383 328.983 93.4111C328.045 93.084 327.314 92.5387 326.791 91.7754C325.264 89.3545 323.487 85.4832 321.458 80.1616C319.452 74.8182 317.653 69.4202 316.061 63.9678C314.49 58.5153 313.705 54.6986 313.705 52.5176C313.705 51.5361 314.13 50.8491 314.981 50.4565C315.853 50.0422 316.9 49.835 318.122 49.835C319.67 49.835 321.273 50.0967 322.931 50.6201C324.588 51.1217 325.875 51.7542 326.791 52.5176C327.227 52.9102 327.62 53.4881 327.969 54.2515C328.318 55.0148 328.634 55.8981 328.917 56.9014C329.223 57.8828 329.485 58.9188 329.703 60.0093C329.943 61.078 330.161 62.1248 330.357 63.1499C330.575 64.175 330.782 65.1019 330.979 65.9307C331.175 66.7594 331.371 67.4246 331.567 67.9263C331.764 68.4279 331.971 68.6787 332.189 68.6787Z" fill="white"/>
</g>
</svg>
