<svg width="455" height="144" viewBox="0 0 455 144" fill="none" xmlns="http://www.w3.org/2000/svg">
<mask id="mask0_214_2838" style="mask-type:alpha" maskUnits="userSpaceOnUse" x="0" y="0" width="455" height="144">
<mask id="path-1-inside-1_214_2838" fill="white">
<path d="M0 10C0 4.47715 4.47715 0 10 0H445C450.523 0 455 4.47715 455 10V134C455 139.523 450.523 144 445 144H10C4.47715 144 0 139.523 0 134V10Z"/>
</mask>
<path d="M0 10C0 4.47715 4.47715 0 10 0H445C450.523 0 455 4.47715 455 10V134C455 139.523 450.523 144 445 144H10C4.47715 144 0 139.523 0 134V10Z" fill="#276665"/>
<path d="M-4 10C-4 2.26801 2.26801 -4 10 -4H451C458.732 -4 465 2.26801 465 10H445C445 6.68629 445 4 445 4H10C6.68629 4 4 6.68629 4 10H-4ZM465 134C465 145.046 456.046 154 445 154H10C2.26801 154 -4 147.732 -4 140L4 134C4 134 6.68629 134 10 134H445H465ZM10 154C2.26801 154 -4 147.732 -4 140V10C-4 2.26801 2.26801 -4 10 -4V4C6.68629 4 4 6.68629 4 10V134C4 134 6.68629 134 10 134V154ZM451 -4C458.732 -4 465 2.26801 465 10V134C465 145.046 456.046 154 445 154V134V10C445 6.68629 445 4 445 4L451 -4Z" fill="black" mask="url(#path-1-inside-1_214_2838)"/>
</mask>
<g mask="url(#mask0_214_2838)">
<mask id="path-3-inside-2_214_2838" fill="white">
<path d="M0 10C0 4.47715 4.47715 0 10 0H445C450.523 0 455 4.47715 455 10V134C455 139.523 450.523 144 445 144H10C4.47715 144 0 139.523 0 134V10Z"/>
</mask>
<path d="M0 10C0 4.47715 4.47715 0 10 0H445C450.523 0 455 4.47715 455 10V134C455 139.523 450.523 144 445 144H10C4.47715 144 0 139.523 0 134V10Z" fill="#276665"/>
<path d="M-4 10C-4 2.26801 2.26801 -4 10 -4H451C458.732 -4 465 2.26801 465 10H445C445 6.68629 445 4 445 4H10C6.68629 4 4 6.68629 4 10H-4ZM465 134C465 145.046 456.046 154 445 154H10C2.26801 154 -4 147.732 -4 140L4 134C4 134 6.68629 134 10 134H445H465ZM10 154C2.26801 154 -4 147.732 -4 140V10C-4 2.26801 2.26801 -4 10 -4V4C6.68629 4 4 6.68629 4 10V134C4 134 6.68629 134 10 134V154ZM451 -4C458.732 -4 465 2.26801 465 10V134C465 145.046 456.046 154 445 154V134V10C445 6.68629 445 4 445 4L451 -4Z" fill="black" mask="url(#path-3-inside-2_214_2838)"/>
<g style="mix-blend-mode:soft-light">
<path fill-rule="evenodd" clip-rule="evenodd" d="M13.7269 0C9.07818 10.6212 7.84301 22.9035 11.2374 35.2306L20.2803 68.0705C26.6126 91.0668 47.5262 107 71.3784 107H433C440.849 107 448.299 105.294 455 102.232V134C455 139.523 450.523 144 445 144H10C4.47715 144 0 139.523 0 134V10C0 4.47715 4.47715 0 10 0H13.7269Z" fill="black" fill-opacity="0.22"/>
</g>
<path d="M134.482 77.5444C135.704 77.6099 137.656 77.5008 140.338 77.2173C143.043 76.9119 145.736 76.7266 148.419 76.6611C151.102 76.5739 153.043 76.8683 154.242 77.5444C155.115 78.1551 155.791 79.1366 156.271 80.4888C156.772 81.841 157.023 83.2477 157.023 84.709C157.023 86.0394 156.794 87.2607 156.336 88.373C155.9 89.4635 155.202 90.216 154.242 90.6304C153.108 91.0884 151.429 91.5791 149.204 92.1025C146.979 92.6042 144.482 93.0513 141.712 93.4438C138.943 93.8146 136.205 94 133.501 94C130.884 94 128.496 93.7492 126.336 93.2476C124.177 92.7459 122.531 91.8735 121.396 90.6304C120.044 88.9292 119.019 86.312 118.321 82.7788C117.645 79.2456 117.307 75.4943 117.307 71.5249C117.307 67.5337 117.645 63.7715 118.321 60.2383C119.019 56.7051 120.044 54.0988 121.396 52.4194C122.531 51.1763 124.177 50.3039 126.336 49.8022C128.517 49.2788 130.917 49.0171 133.534 49.0171C136.216 49.0171 138.943 49.2134 141.712 49.606C144.482 49.9767 146.979 50.4238 149.204 50.9473C151.429 51.4707 153.108 51.9614 154.242 52.4194C155.202 52.8338 155.9 53.5972 156.336 54.7095C156.794 55.8 157.023 56.9995 157.023 58.3081C157.023 59.7694 156.772 61.187 156.271 62.561C155.791 63.9132 155.115 64.8947 154.242 65.5054C153.043 66.1815 151.102 66.4759 148.419 66.3887C145.736 66.3014 143.043 66.116 140.338 65.8325C137.656 65.549 135.704 65.4399 134.482 65.5054C134.264 65.549 134.112 65.7344 134.024 66.0615C133.959 66.3669 133.959 66.6831 134.024 67.0103C134.112 67.3374 134.264 67.5337 134.482 67.5991C135.289 67.6864 136.587 67.6427 138.375 67.4683C140.164 67.272 141.941 67.1411 143.708 67.0757C145.496 67.0103 146.783 67.1847 147.568 67.5991C148.31 68.0789 148.801 68.8532 149.041 69.9219C149.28 70.9906 149.28 72.0592 149.041 73.1279C148.801 74.1966 148.31 74.9709 147.568 75.4507C146.783 75.8651 145.496 76.0396 143.708 75.9741C141.941 75.8869 140.164 75.756 138.375 75.5815C136.587 75.4071 135.289 75.3634 134.482 75.4507C134.264 75.5161 134.112 75.7124 134.024 76.0396C133.959 76.3449 133.959 76.6611 134.024 76.9883C134.112 77.2936 134.264 77.479 134.482 77.5444ZM174.918 73.5859C174.634 73.5859 174.482 73.9458 174.46 74.6655C174.46 75.3853 174.525 76.3231 174.656 77.479C174.787 78.6349 174.929 79.889 175.082 81.2412C175.256 82.5934 175.398 83.9238 175.507 85.2324C175.616 86.541 175.638 87.7188 175.572 88.7656C175.507 89.7907 175.289 90.554 174.918 91.0557C174.285 91.8626 173.25 92.506 171.81 92.9858C170.371 93.4657 168.888 93.7056 167.361 93.7056C166.074 93.7056 164.918 93.4984 163.893 93.084C162.868 92.6696 162.181 91.9935 161.832 91.0557C161.265 89.2236 160.818 86.3883 160.491 82.5498C160.185 78.6895 160.033 74.6219 160.033 70.3472C160.033 67.7518 160.098 65.2327 160.229 62.79C160.36 60.3473 160.556 58.1772 160.818 56.2798C161.08 54.3605 161.418 52.8665 161.832 51.7979C162.29 50.7292 163.042 49.9658 164.089 49.5078C165.136 49.0498 166.336 48.8208 167.688 48.8208C169.389 48.8208 171.134 49.1152 172.922 49.7041C174.733 50.2712 176.27 50.9691 177.535 51.7979C178.08 52.1686 178.626 52.703 179.171 53.4009C179.716 54.077 180.25 54.8621 180.774 55.7563C181.297 56.6506 181.81 57.5993 182.312 58.6025C182.813 59.6058 183.293 60.609 183.751 61.6123C184.231 62.6156 184.678 63.5752 185.092 64.4912C185.507 65.4072 185.888 66.2251 186.237 66.9448C186.608 67.6427 186.935 68.1989 187.219 68.6133C187.524 69.0277 187.786 69.2349 188.004 69.2349C188.44 69.2349 188.593 68.4824 188.462 66.9775C188.331 65.4727 188.124 63.6842 187.84 61.6123C187.557 59.5404 187.382 57.5884 187.317 55.7563C187.273 53.9025 187.502 52.583 188.004 51.7979C188.658 50.9909 189.705 50.3475 191.145 49.8677C192.584 49.366 194.067 49.1152 195.594 49.1152C196.859 49.1152 198.004 49.3333 199.029 49.7695C200.054 50.1839 200.741 50.86 201.09 51.7979C201.679 53.6299 202.126 56.4761 202.431 60.3364C202.736 64.175 202.889 68.2316 202.889 72.5063C202.889 75.1017 202.824 77.6208 202.693 80.0635C202.584 82.5062 202.388 84.6872 202.104 86.6064C201.842 88.5039 201.504 89.987 201.09 91.0557C200.654 92.1025 199.912 92.855 198.865 93.313C197.818 93.771 196.619 94 195.267 94C193.565 94 191.81 93.7165 190 93.1494C188.189 92.5824 186.652 91.8844 185.387 91.0557C184.296 90.2487 183.217 88.9292 182.148 87.0972C181.101 85.2651 180.109 83.3132 179.171 81.2412C178.233 79.1693 177.393 77.3809 176.652 75.876C175.932 74.3493 175.354 73.5859 174.918 73.5859ZM220.032 63.7061C219.53 62.7682 218.69 62.3211 217.513 62.3647C216.335 62.3866 215.037 62.6156 213.62 63.0518C212.202 63.4661 210.882 63.8042 209.661 64.0659C208.44 64.3276 207.535 64.2077 206.946 63.7061C206.531 63.2699 206.139 62.6265 205.768 61.7759C205.397 60.9035 205.092 59.9329 204.852 58.8643C204.634 57.7738 204.525 56.7051 204.525 55.6582C204.525 54.4805 204.71 53.4336 205.081 52.5176C205.452 51.5798 206.073 50.9473 206.946 50.6201C208.691 50.0749 211.373 49.6714 214.994 49.4097C218.614 49.1261 222.474 48.9844 226.575 48.9844C230.653 48.9844 234.503 49.1261 238.123 49.4097C241.765 49.6714 244.459 50.0749 246.204 50.6201C247.076 50.9473 247.698 51.5688 248.068 52.4849C248.439 53.4009 248.625 54.4478 248.625 55.6255C248.625 56.258 248.581 56.9014 248.494 57.5557C248.406 58.21 248.286 58.8534 248.134 59.4858C247.981 60.0965 247.796 60.6745 247.578 61.2197C247.381 61.765 247.163 62.2557 246.923 62.6919C246.705 63.1063 246.465 63.4443 246.204 63.7061C245.615 64.2077 244.71 64.3276 243.488 64.0659C242.289 63.8042 240.98 63.4661 239.562 63.0518C238.145 62.6156 236.836 62.3866 235.637 62.3647C234.459 62.3211 233.619 62.7682 233.118 63.7061C232.594 64.9056 232.387 66.7594 232.496 69.2676C232.605 71.7539 232.812 74.4583 233.118 77.3809C233.423 80.2816 233.63 82.986 233.739 85.4941C233.848 87.9805 233.641 89.8343 233.118 91.0557C232.616 92.0371 231.755 92.7786 230.533 93.2803C229.312 93.7601 227.992 94 226.575 94C225.179 94 223.87 93.7601 222.649 93.2803C221.428 92.7786 220.555 92.0371 220.032 91.0557C219.508 89.8343 219.301 87.9805 219.41 85.4941C219.519 82.986 219.726 80.2816 220.032 77.3809C220.337 74.4583 220.544 71.7539 220.653 69.2676C220.762 66.7594 220.555 64.9056 220.032 63.7061ZM266.781 77.5444C268.003 77.6099 269.955 77.5008 272.637 77.2173C275.342 76.9119 278.035 76.7266 280.718 76.6611C283.4 76.5739 285.341 76.8683 286.541 77.5444C287.413 78.1551 288.09 79.1366 288.569 80.4888C289.071 81.841 289.322 83.2477 289.322 84.709C289.322 86.0394 289.093 87.2607 288.635 88.373C288.199 89.4635 287.501 90.216 286.541 90.6304C285.407 91.0884 283.728 91.5791 281.503 92.1025C279.278 92.6042 276.781 93.0513 274.011 93.4438C271.241 93.8146 268.504 94 265.8 94C263.183 94 260.794 93.7492 258.635 93.2476C256.476 92.7459 254.829 91.8735 253.695 90.6304C252.343 88.9292 251.318 86.312 250.62 82.7788C249.944 79.2456 249.606 75.4943 249.606 71.5249C249.606 67.5337 249.944 63.7715 250.62 60.2383C251.318 56.7051 252.343 54.0988 253.695 52.4194C254.829 51.1763 256.476 50.3039 258.635 49.8022C260.816 49.2788 263.215 49.0171 265.833 49.0171C268.515 49.0171 271.241 49.2134 274.011 49.606C276.781 49.9767 279.278 50.4238 281.503 50.9473C283.728 51.4707 285.407 51.9614 286.541 52.4194C287.501 52.8338 288.199 53.5972 288.635 54.7095C289.093 55.8 289.322 56.9995 289.322 58.3081C289.322 59.7694 289.071 61.187 288.569 62.561C288.09 63.9132 287.413 64.8947 286.541 65.5054C285.341 66.1815 283.4 66.4759 280.718 66.3887C278.035 66.3014 275.342 66.116 272.637 65.8325C269.955 65.549 268.003 65.4399 266.781 65.5054C266.563 65.549 266.41 65.7344 266.323 66.0615C266.258 66.3669 266.258 66.6831 266.323 67.0103C266.41 67.3374 266.563 67.5337 266.781 67.5991C267.588 67.6864 268.886 67.6427 270.674 67.4683C272.463 67.272 274.24 67.1411 276.007 67.0757C277.795 67.0103 279.082 67.1847 279.867 67.5991C280.609 68.0789 281.099 68.8532 281.339 69.9219C281.579 70.9906 281.579 72.0592 281.339 73.1279C281.099 74.1966 280.609 74.9709 279.867 75.4507C279.082 75.8651 277.795 76.0396 276.007 75.9741C274.24 75.8869 272.463 75.756 270.674 75.5815C268.886 75.4071 267.588 75.3634 266.781 75.4507C266.563 75.5161 266.41 75.7124 266.323 76.0396C266.258 76.3449 266.258 76.6611 266.323 76.9883C266.41 77.2936 266.563 77.479 266.781 77.5444ZM313.433 78.4932C312.059 78.5368 310.957 78.5477 310.128 78.5259C309.3 78.5041 308.885 78.4932 308.885 78.4932C308.885 78.4932 308.951 78.8748 309.082 79.6382C309.212 80.3797 309.343 81.3285 309.474 82.4844C309.627 83.6185 309.736 84.8071 309.801 86.0503C309.867 87.2716 309.834 88.384 309.703 89.3872C309.572 90.3905 309.3 91.1211 308.885 91.5791C308.449 91.9935 307.795 92.3861 306.922 92.7568C306.072 93.1276 305.101 93.4329 304.011 93.6729C302.942 93.891 301.884 94 300.837 94C299.638 94 298.569 93.8146 297.631 93.4438C296.715 93.0731 296.105 92.4515 295.799 91.5791C295.341 90.1833 294.84 88.0895 294.294 85.2979C293.771 82.5062 293.313 79.3765 292.92 75.9087C292.528 72.4191 292.332 69.0386 292.332 65.7671C292.332 62.6047 292.593 59.8021 293.117 57.3594C293.64 54.9167 294.534 53.2373 295.799 52.3213C297.064 51.4925 299.027 50.8055 301.688 50.2603C304.371 49.715 307.337 49.4424 310.586 49.4424C313.378 49.4424 316.192 49.7041 319.027 50.2275C321.884 50.751 324.501 51.6234 326.878 52.8447C329.256 54.0661 331.175 55.7127 332.636 57.7847C334.119 59.8348 334.926 62.3757 335.057 65.4072V65.7017C335.057 67.7518 334.577 69.5075 333.618 70.9688C332.658 72.4082 331.404 73.6077 329.855 74.5674C331.251 76.9883 332.429 79.311 333.389 81.5356C334.37 83.7603 334.926 85.516 335.057 86.8027V86.999C335.057 88.1549 334.577 89.2673 333.618 90.3359C332.68 91.4046 331.513 92.2879 330.117 92.9858C328.743 93.6619 327.424 94 326.159 94C325.243 94 324.425 93.7819 323.705 93.3457C322.789 92.7132 321.72 91.6227 320.499 90.0742C319.299 88.5039 318.067 86.6937 316.802 84.6436C315.559 82.5934 314.436 80.5433 313.433 78.4932ZM310.423 60.4673C310.074 60.62 309.889 61.0889 309.867 61.874C309.845 62.6592 309.943 63.4771 310.161 64.3276C310.401 65.1564 310.717 65.7017 311.11 65.9634C311.437 66.116 311.928 66.2251 312.582 66.2905C313.236 66.356 313.923 66.3451 314.643 66.2578C315.385 66.1706 316.028 65.9634 316.573 65.6362C317.118 65.3091 317.424 64.8402 317.489 64.2295C317.533 63.7715 317.413 63.3571 317.129 62.9863C316.846 62.5938 316.464 62.2557 315.984 61.9722C315.526 61.6668 315.014 61.416 314.447 61.2197C313.88 61.0016 313.324 60.8271 312.778 60.6963C312.233 60.5654 311.742 60.4891 311.306 60.4673C310.892 60.4237 310.597 60.4237 310.423 60.4673Z" fill="white"/>
</g>
</svg>
