<svg width="1920" height="2398" viewBox="0 0 1920 2398" fill="none" xmlns="http://www.w3.org/2000/svg">
<path d="M1547.52 779.401C1558.72 776.473 1676.28 766.714 1643.68 790.307C1630.82 798.459 1594.19 809.309 1556.71 820.79C1530.87 829.975 1473.87 843.809 1473.41 872.512C1478.69 904.2 1538.85 913.959 1567.15 920.79C1668.93 938.011 1775.31 947.024 1878.06 950.009C1943.62 949.952 2006.71 944.097 2074.79 939.332C2232.94 926.301 2401.08 914.533 2540.17 836.519C2615.38 795.417 2704.81 736.346 2741.32 664.59C2774.62 599.32 2785.58 514.073 2744.08 450.87C2716.87 409.251 2681.45 372.683 2660.04 327.218C2634.55 277.046 2623.13 215.967 2585.81 172.568C2551.08 131.466 2499.76 110.341 2447.18 102.362C2323.53 86.9196 2244.25 97.0803 2151.6 -3.2643C2073.3 -85.2966 2022.21 -188.052 1910.95 -222.036C1815.72 -251.657 1704.07 -269.912 1598.84 -283.288C1552.46 -288.454 1507.8 -291.21 1462.62 -289.487C1357.8 -284.493 1253.26 -264.975 1148.15 -247.122C1086.96 -236.043 1027.6 -222.725 968.875 -202.863C840.804 -156.709 718.358 -105.159 614.34 -18.1323C557.738 30.5475 499.07 88.8714 469.793 158.619C426.107 264.934 511.584 302.821 598.496 327.333C649.127 341.685 702.285 353.969 754.638 359.882C838.852 371.363 916.12 347.368 994.019 319.124C1043.62 302.936 1110.09 275.898 1159 287.781C1218.59 307.873 1176.97 369.813 1136.5 393.694C1105.67 413.671 1066.23 424.75 1029.15 432.098C956.763 445.244 884.317 455.405 812.331 475.095C760.723 488.757 485.981 567.288 524.787 634.509C539.311 657.471 601.538 678.654 638.68 689.791C735.465 718.379 847.635 739.619 949.07 759.022C1082.71 781.754 1199.19 808.39 1328.23 807.701C1400.85 806.725 1474.16 790.135 1546.32 779.573L1547.46 779.401H1547.52Z" fill="#142449"/>
<path d="M-66.4787 2227.4C-55.2847 2224.47 62.2815 2214.71 29.6753 2238.31C16.8165 2246.46 -19.8081 2257.31 -57.2938 2268.79C-83.1262 2277.97 -140.13 2291.81 -140.589 2320.51C-135.308 2352.2 -75.1468 2361.96 -46.846 2368.79C54.9337 2386.01 161.306 2395.02 264.061 2398.01C329.618 2397.95 392.707 2392.1 460.79 2387.33C618.941 2374.3 787.082 2362.53 926.175 2284.52C1001.38 2243.42 1090.81 2184.35 1127.32 2112.59C1160.62 2047.32 1171.58 1962.07 1130.08 1898.87C1102.87 1857.25 1067.45 1820.68 1046.04 1775.22C1020.55 1725.05 1009.13 1663.97 971.812 1620.57C937.082 1579.47 885.762 1558.34 833.178 1550.36C709.527 1534.92 630.25 1545.08 537.598 1444.74C459.297 1362.7 408.206 1259.95 296.955 1225.96C201.719 1196.34 90.0657 1178.09 -15.1583 1164.71C-61.5418 1159.55 -106.203 1156.79 -151.381 1158.51C-256.203 1163.51 -360.739 1183.02 -465.848 1200.88C-527.042 1211.96 -586.399 1225.27 -645.125 1245.14C-773.196 1291.29 -895.642 1342.84 -999.66 1429.87C-1056.26 1478.55 -1114.93 1536.87 -1144.21 1606.62C-1187.89 1712.93 -1102.42 1750.82 -1015.5 1775.33C-964.873 1789.68 -911.715 1801.97 -859.362 1807.88C-775.148 1819.36 -697.88 1795.37 -619.981 1767.12C-570.383 1750.94 -503.908 1723.9 -454.998 1735.78C-395.411 1755.87 -437.03 1817.81 -477.501 1841.69C-508.328 1861.67 -547.765 1872.75 -584.849 1880.1C-657.237 1893.24 -729.683 1903.4 -801.669 1923.09C-853.277 1936.76 -1128.02 2015.29 -1089.21 2082.51C-1074.69 2105.47 -1012.46 2126.65 -975.32 2137.79C-878.535 2166.38 -766.365 2187.62 -664.93 2207.02C-531.29 2229.75 -414.814 2256.39 -285.767 2255.7C-213.149 2254.73 -139.843 2238.14 -67.6842 2227.57L-66.5361 2227.4H-66.4787Z" fill="#142449"/>
<path d="M1685.95 2222.76C1691.56 2222.04 1750.47 2219.62 1734.13 2225.46C1727.69 2227.48 1709.34 2230.17 1690.55 2233.01C1677.61 2235.28 1649.04 2238.71 1648.81 2245.81C1651.46 2253.66 1681.61 2256.07 1695.79 2257.77C1746.79 2262.03 1800.09 2264.26 1851.58 2265C1884.43 2264.99 1916.04 2263.54 1950.16 2262.36C2029.41 2259.13 2113.66 2256.22 2183.36 2236.9C2221.04 2226.73 2265.86 2212.1 2284.15 2194.34C2300.84 2178.18 2306.33 2157.07 2285.53 2141.42C2271.9 2131.12 2254.15 2122.07 2243.42 2110.81C2230.65 2098.39 2224.93 2083.27 2206.23 2072.52C2188.83 2062.35 2163.11 2057.12 2136.76 2055.14C2074.8 2051.32 2035.07 2053.83 1988.65 2028.99C1949.41 2008.68 1923.81 1983.24 1868.06 1974.83C1820.34 1967.49 1764.39 1962.97 1711.67 1959.66C1688.42 1958.38 1666.04 1957.7 1643.41 1958.13C1590.88 1959.36 1538.5 1964.2 1485.83 1968.62C1455.17 1971.36 1425.42 1974.66 1396 1979.57C1331.82 1991 1270.46 2003.76 1218.34 2025.31C1189.98 2037.36 1160.58 2051.8 1145.91 2069.07C1124.02 2095.39 1166.85 2104.77 1210.4 2110.84C1235.77 2114.39 1262.41 2117.43 1288.64 2118.9C1330.84 2121.74 1369.56 2115.8 1408.59 2108.81C1433.45 2104.8 1466.76 2098.1 1491.27 2101.05C1521.12 2106.02 1500.27 2121.36 1479.99 2127.27C1464.54 2132.21 1444.78 2134.96 1426.2 2136.78C1389.93 2140.03 1353.62 2142.55 1317.55 2147.42C1291.69 2150.8 1154.02 2170.25 1173.47 2186.89C1180.74 2192.57 1211.93 2197.82 1230.54 2200.58C1279.04 2207.65 1335.24 2212.91 1386.07 2217.72C1453.04 2223.34 1511.4 2229.94 1576.07 2229.77C1612.45 2229.53 1649.19 2225.42 1685.35 2222.8L1685.92 2222.76H1685.95Z" fill="#142449"/>
</svg>
