<svg width="455" height="144" viewBox="0 0 455 144" fill="none" xmlns="http://www.w3.org/2000/svg">
<mask id="mask0_66_263" style="mask-type:alpha" maskUnits="userSpaceOnUse" x="0" y="0" width="455" height="144">
<mask id="path-1-inside-1_66_263" fill="white">
<path d="M455 10C455 4.47715 450.523 0 445 0H10C4.47714 0 0 4.47715 0 10V134C0 139.523 4.47714 144 10 144H445C450.523 144 455 139.523 455 134V10Z"/>
</mask>
<path d="M455 10C455 4.47715 450.523 0 445 0H10C4.47714 0 0 4.47715 0 10V134C0 139.523 4.47714 144 10 144H445C450.523 144 455 139.523 455 134V10Z" fill="#276665"/>
<path d="M459 10C459 2.26801 452.732 -4 445 -4H4C-3.73199 -4 -10 2.26801 -10 10H10C10 6.68629 10 4 10 4H445C448.314 4 451 6.68629 451 10H459ZM-10 134C-10 145.046 -1.04568 154 10 154H445C452.732 154 459 147.732 459 140L451 134C451 134 448.314 134 445 134H10H-10ZM445 154C452.732 154 459 147.732 459 140V10C459 2.26801 452.732 -4 445 -4V4C448.314 4 451 6.68629 451 10V134C451 134 448.314 134 445 134V154ZM4 -4C-3.73199 -4 -10 2.26801 -10 10V134C-10 145.046 -1.04568 154 10 154V134V10C10 6.68629 10 4 10 4L4 -4Z" fill="black" mask="url(#path-1-inside-1_66_263)"/>
</mask>
<g mask="url(#mask0_66_263)">
<mask id="path-3-inside-2_66_263" fill="white">
<path d="M455 10C455 4.47715 450.523 0 445 0H10C4.47714 0 0 4.47715 0 10V134C0 139.523 4.47714 144 10 144H445C450.523 144 455 139.523 455 134V10Z"/>
</mask>
<path d="M455 10C455 4.47715 450.523 0 445 0H10C4.47714 0 0 4.47715 0 10V134C0 139.523 4.47714 144 10 144H445C450.523 144 455 139.523 455 134V10Z" fill="#276665"/>
<path d="M459 10C459 2.26801 452.732 -4 445 -4H4C-3.73199 -4 -10 2.26801 -10 10H10C10 6.68629 10 4 10 4H445C448.314 4 451 6.68629 451 10H459ZM-10 134C-10 145.046 -1.04568 154 10 154H445C452.732 154 459 147.732 459 140L451 134C451 134 448.314 134 445 134H10H-10ZM445 154C452.732 154 459 147.732 459 140V10C459 2.26801 452.732 -4 445 -4V4C448.314 4 451 6.68629 451 10V134C451 134 448.314 134 445 134V154ZM4 -4C-3.73199 -4 -10 2.26801 -10 10V134C-10 145.046 -1.04568 154 10 154V134V10C10 6.68629 10 4 10 4L4 -4Z" fill="black" mask="url(#path-3-inside-2_66_263)"/>
<g style="mix-blend-mode:soft-light">
<path fill-rule="evenodd" clip-rule="evenodd" d="M441.273 0C445.922 10.6212 447.157 22.9035 443.763 35.2306L434.72 68.0705C428.387 91.0668 407.474 107 383.622 107H22C14.1513 107 6.70111 105.294 0 102.232V134C0 139.523 4.47714 144 10 144H445C450.523 144 455 139.523 455 134V10C455 4.47715 450.523 0 445 0H441.273Z" fill="black" fill-opacity="0.22"/>
</g>
<path d="M70.5107 63.7061C70.0091 62.7682 69.1694 62.3211 67.9917 62.3647C66.814 62.3866 65.5163 62.6156 64.0986 63.0518C62.681 63.4661 61.3615 63.8042 60.1401 64.0659C58.9188 64.3276 58.0137 64.2077 57.4248 63.7061C57.0104 63.2699 56.6178 62.6265 56.2471 61.7759C55.8763 60.9035 55.571 59.9329 55.3311 58.8643C55.113 57.7738 55.0039 56.7051 55.0039 55.6582C55.0039 54.4805 55.1893 53.4336 55.5601 52.5176C55.9308 51.5798 56.5524 50.9473 57.4248 50.6201C59.1696 50.0749 61.8522 49.6714 65.4727 49.4097C69.0931 49.1261 72.9535 48.9844 77.0537 48.9844C81.1322 48.9844 84.9816 49.1261 88.6021 49.4097C92.2443 49.6714 94.9378 50.0749 96.6826 50.6201C97.555 50.9473 98.1766 51.5688 98.5474 52.4849C98.9181 53.4009 99.1035 54.4478 99.1035 55.6255C99.1035 56.258 99.0599 56.9014 98.9727 57.5557C98.8854 58.21 98.7655 58.8534 98.6128 59.4858C98.4601 60.0965 98.2747 60.6745 98.0566 61.2197C97.8604 61.765 97.6423 62.2557 97.4023 62.6919C97.1842 63.1063 96.9443 63.4443 96.6826 63.7061C96.0938 64.2077 95.1886 64.3276 93.9673 64.0659C92.7677 63.8042 91.4591 63.4661 90.0415 63.0518C88.6239 62.6156 87.3153 62.3866 86.1157 62.3647C84.938 62.3211 84.0983 62.7682 83.5967 63.7061C83.0732 64.9056 82.866 66.7594 82.9751 69.2676C83.0841 71.7539 83.2913 74.4583 83.5967 77.3809C83.902 80.2816 84.1092 82.986 84.2183 85.4941C84.3273 87.9805 84.1201 89.8343 83.5967 91.0557C83.0951 92.0371 82.2336 92.7786 81.0122 93.2803C79.7909 93.7601 78.4714 94 77.0537 94C75.6579 94 74.3493 93.7601 73.1279 93.2803C71.9066 92.7786 71.0342 92.0371 70.5107 91.0557C69.9873 89.8343 69.7801 87.9805 69.8892 85.4941C69.9982 82.986 70.2054 80.2816 70.5107 77.3809C70.8161 74.4583 71.0233 71.7539 71.1323 69.2676C71.2414 66.7594 71.0342 64.9056 70.5107 63.7061ZM117.26 77.5444C118.482 77.6099 120.434 77.5008 123.116 77.2173C125.821 76.9119 128.514 76.7266 131.197 76.6611C133.879 76.5739 135.82 76.8683 137.02 77.5444C137.892 78.1551 138.569 79.1366 139.048 80.4888C139.55 81.841 139.801 83.2477 139.801 84.709C139.801 86.0394 139.572 87.2607 139.114 88.373C138.678 89.4635 137.98 90.216 137.02 90.6304C135.886 91.0884 134.207 91.5791 131.982 92.1025C129.757 92.6042 127.26 93.0513 124.49 93.4438C121.72 93.8146 118.983 94 116.279 94C113.662 94 111.273 93.7492 109.114 93.2476C106.955 92.7459 105.308 91.8735 104.174 90.6304C102.822 88.9292 101.797 86.312 101.099 82.7788C100.423 79.2456 100.085 75.4943 100.085 71.5249C100.085 67.5337 100.423 63.7715 101.099 60.2383C101.797 56.7051 102.822 54.0988 104.174 52.4194C105.308 51.1763 106.955 50.3039 109.114 49.8022C111.295 49.2788 113.694 49.0171 116.312 49.0171C118.994 49.0171 121.72 49.2134 124.49 49.606C127.26 49.9767 129.757 50.4238 131.982 50.9473C134.207 51.4707 135.886 51.9614 137.02 52.4194C137.98 52.8338 138.678 53.5972 139.114 54.7095C139.572 55.8 139.801 56.9995 139.801 58.3081C139.801 59.7694 139.55 61.187 139.048 62.561C138.569 63.9132 137.892 64.8947 137.02 65.5054C135.82 66.1815 133.879 66.4759 131.197 66.3887C128.514 66.3014 125.821 66.116 123.116 65.8325C120.434 65.549 118.482 65.4399 117.26 65.5054C117.042 65.549 116.889 65.7344 116.802 66.0615C116.737 66.3669 116.737 66.6831 116.802 67.0103C116.889 67.3374 117.042 67.5337 117.26 67.5991C118.067 67.6864 119.365 67.6427 121.153 67.4683C122.942 67.272 124.719 67.1411 126.486 67.0757C128.274 67.0103 129.561 67.1847 130.346 67.5991C131.088 68.0789 131.578 68.8532 131.818 69.9219C132.058 70.9906 132.058 72.0592 131.818 73.1279C131.578 74.1966 131.088 74.9709 130.346 75.4507C129.561 75.8651 128.274 76.0396 126.486 75.9741C124.719 75.8869 122.942 75.756 121.153 75.5815C119.365 75.4071 118.067 75.3634 117.26 75.4507C117.042 75.5161 116.889 75.7124 116.802 76.0396C116.737 76.3449 116.737 76.6611 116.802 76.9883C116.889 77.2936 117.042 77.479 117.26 77.5444ZM145.853 90.4341C144.741 89.0601 143.956 87.0426 143.498 84.3818C143.04 81.721 142.811 78.7876 142.811 75.5815C142.811 70.8052 143.138 66.0833 143.792 61.416C144.468 56.7269 145.155 53.3136 145.853 51.1763C146.224 50.173 146.998 49.4206 148.176 48.9189C149.354 48.4173 150.651 48.1665 152.069 48.1665C153.508 48.1665 154.871 48.4282 156.158 48.9517C157.467 49.4533 158.394 50.1948 158.939 51.1763C159.201 51.7433 159.364 52.4849 159.43 53.4009C159.495 54.2951 159.484 55.3311 159.397 56.5088C159.31 57.6647 159.179 58.9079 159.004 60.2383C158.83 61.5687 158.655 62.9209 158.481 64.2949C158.306 65.6471 158.154 66.9884 158.023 68.3188C157.892 69.6274 157.816 70.8706 157.794 72.0483C157.794 73.2043 157.881 74.2402 158.056 75.1562C158.23 76.0723 158.525 76.8029 158.939 77.3481C159.855 78.395 161.251 78.9185 163.126 78.9185C165.002 78.8966 167.03 78.6567 169.211 78.1987C171.414 77.7189 173.443 77.3372 175.296 77.0537C177.172 76.7702 178.568 76.8683 179.484 77.3481C180.378 77.9588 181.065 78.9403 181.545 80.2925C182.047 81.6229 182.297 83.0187 182.297 84.48C182.297 85.8104 182.068 87.0317 181.61 88.144C181.152 89.2563 180.444 90.0197 179.484 90.4341C178.306 90.8921 176.572 91.3937 174.282 91.939C172.014 92.4624 169.451 92.9204 166.594 93.313C163.759 93.7056 160.967 93.9019 158.219 93.9019C155.537 93.9019 153.083 93.6401 150.858 93.1167C148.656 92.5933 146.987 91.6991 145.853 90.4341ZM199.833 77.5444C201.054 77.6099 203.006 77.5008 205.688 77.2173C208.393 76.9119 211.086 76.7266 213.769 76.6611C216.452 76.5739 218.393 76.8683 219.592 77.5444C220.465 78.1551 221.141 79.1366 221.621 80.4888C222.122 81.841 222.373 83.2477 222.373 84.709C222.373 86.0394 222.144 87.2607 221.686 88.373C221.25 89.4635 220.552 90.216 219.592 90.6304C218.458 91.0884 216.779 91.5791 214.554 92.1025C212.33 92.6042 209.832 93.0513 207.062 93.4438C204.293 93.8146 201.556 94 198.851 94C196.234 94 193.846 93.7492 191.687 93.2476C189.527 92.7459 187.881 91.8735 186.747 90.6304C185.394 88.9292 184.369 86.312 183.671 82.7788C182.995 79.2456 182.657 75.4943 182.657 71.5249C182.657 67.5337 182.995 63.7715 183.671 60.2383C184.369 56.7051 185.394 54.0988 186.747 52.4194C187.881 51.1763 189.527 50.3039 191.687 49.8022C193.868 49.2788 196.267 49.0171 198.884 49.0171C201.566 49.0171 204.293 49.2134 207.062 49.606C209.832 49.9767 212.33 50.4238 214.554 50.9473C216.779 51.4707 218.458 51.9614 219.592 52.4194C220.552 52.8338 221.25 53.5972 221.686 54.7095C222.144 55.8 222.373 56.9995 222.373 58.3081C222.373 59.7694 222.122 61.187 221.621 62.561C221.141 63.9132 220.465 64.8947 219.592 65.5054C218.393 66.1815 216.452 66.4759 213.769 66.3887C211.086 66.3014 208.393 66.116 205.688 65.8325C203.006 65.549 201.054 65.4399 199.833 65.5054C199.614 65.549 199.462 65.7344 199.375 66.0615C199.309 66.3669 199.309 66.6831 199.375 67.0103C199.462 67.3374 199.614 67.5337 199.833 67.5991C200.639 67.6864 201.937 67.6427 203.726 67.4683C205.514 67.272 207.292 67.1411 209.058 67.0757C210.847 67.0103 212.133 67.1847 212.918 67.5991C213.66 68.0789 214.151 68.8532 214.391 69.9219C214.631 70.9906 214.631 72.0592 214.391 73.1279C214.151 74.1966 213.66 74.9709 212.918 75.4507C212.133 75.8651 210.847 76.0396 209.058 75.9741C207.292 75.8869 205.514 75.756 203.726 75.5815C201.937 75.4071 200.639 75.3634 199.833 75.4507C199.614 75.5161 199.462 75.7124 199.375 76.0396C199.309 76.3449 199.309 76.6611 199.375 76.9883C199.462 77.2936 199.614 77.479 199.833 77.5444ZM263.299 74.9272C263.19 76.7811 262.612 78.9839 261.565 81.5356C260.54 84.0874 259.046 86.4647 257.083 88.6675C255.142 90.8703 252.754 92.3643 249.919 93.1494C247.563 93.7165 245.339 94 243.245 94C238.185 94 234.02 92.4733 230.748 89.4199C227.477 86.3447 225.405 82.07 224.532 76.5957C224.183 74.4583 224.009 72.2882 224.009 70.0854C224.009 67.0975 224.434 64.1968 225.285 61.3833C226.135 58.548 227.597 56.0508 229.668 53.8916C231.74 51.7106 234.576 50.0858 238.174 49.0171C239.461 48.6681 240.792 48.4937 242.166 48.4937C244.826 48.4937 247.465 49.0062 250.083 50.0312C252.722 51.0345 254.903 52.2668 256.625 53.728C258.37 55.1893 259.308 56.6506 259.439 58.1118C259.483 59.9002 258.992 61.416 257.967 62.6592C256.964 63.8805 255.677 64.7529 254.106 65.2764C252.536 65.778 250.966 65.8325 249.396 65.4399C248.523 65.1564 247.651 64.6875 246.778 64.0332C245.906 63.3789 245.034 62.8118 244.161 62.332C243.289 61.8304 242.427 61.6668 241.577 61.8413C239.919 62.3647 238.916 63.5861 238.567 65.5054C238.218 67.4246 238.087 69.5402 238.174 71.8521C238.196 74.1857 238.654 76.1595 239.548 77.7734C240.464 79.3874 241.926 80.2489 243.932 80.3579C244.128 80.3579 244.379 80.3252 244.685 80.2598C244.99 80.1943 245.317 80.0962 245.666 79.9653C246.015 79.8345 246.364 79.6818 246.713 79.5073C247.062 79.3328 247.389 79.1475 247.694 78.9512C248.021 78.7331 248.305 78.5259 248.545 78.3296C248.785 78.1115 248.959 77.8934 249.068 77.6753C247.433 77.5008 246.233 77.2391 245.47 76.8901C244.663 76.4539 244.128 75.6797 243.867 74.5674C243.605 73.4551 243.605 72.3428 243.867 71.2305C244.128 70.1182 244.663 69.3439 245.47 68.9077C246.495 68.4715 247.934 68.2425 249.788 68.2207C251.642 68.1989 253.507 68.297 255.382 68.5151C257.258 68.7114 258.741 68.9404 259.832 69.2021C260.857 69.4857 261.609 70.02 262.089 70.8052C262.59 71.5903 262.918 72.3864 263.07 73.1934C263.223 74.0003 263.299 74.5456 263.299 74.8291V74.9272ZM287.116 78.4932C285.742 78.5368 284.64 78.5477 283.812 78.5259C282.983 78.5041 282.568 78.4932 282.568 78.4932C282.568 78.4932 282.634 78.8748 282.765 79.6382C282.896 80.3797 283.026 81.3285 283.157 82.4844C283.31 83.6185 283.419 84.8071 283.484 86.0503C283.55 87.2716 283.517 88.384 283.386 89.3872C283.255 90.3905 282.983 91.1211 282.568 91.5791C282.132 91.9935 281.478 92.3861 280.605 92.7568C279.755 93.1276 278.784 93.4329 277.694 93.6729C276.625 93.891 275.567 94 274.521 94C273.321 94 272.252 93.8146 271.314 93.4438C270.398 93.0731 269.788 92.4515 269.482 91.5791C269.024 90.1833 268.523 88.0895 267.978 85.2979C267.454 82.5062 266.996 79.3765 266.604 75.9087C266.211 72.4191 266.015 69.0386 266.015 65.7671C266.015 62.6047 266.276 59.8021 266.8 57.3594C267.323 54.9167 268.217 53.2373 269.482 52.3213C270.747 51.4925 272.71 50.8055 275.371 50.2603C278.054 49.715 281.02 49.4424 284.27 49.4424C287.061 49.4424 289.875 49.7041 292.71 50.2275C295.567 50.751 298.184 51.6234 300.562 52.8447C302.939 54.0661 304.858 55.7127 306.319 57.7847C307.802 59.8348 308.609 62.3757 308.74 65.4072V65.7017C308.74 67.7518 308.26 69.5075 307.301 70.9688C306.341 72.4082 305.087 73.6077 303.539 74.5674C304.934 76.9883 306.112 79.311 307.072 81.5356C308.053 83.7603 308.609 85.516 308.74 86.8027V86.999C308.74 88.1549 308.26 89.2673 307.301 90.3359C306.363 91.4046 305.196 92.2879 303.8 92.9858C302.426 93.6619 301.107 94 299.842 94C298.926 94 298.108 93.7819 297.388 93.3457C296.472 92.7132 295.403 91.6227 294.182 90.0742C292.983 88.5039 291.75 86.6937 290.485 84.6436C289.242 82.5934 288.119 80.5433 287.116 78.4932ZM284.106 60.4673C283.757 60.62 283.572 61.0889 283.55 61.874C283.528 62.6592 283.626 63.4771 283.844 64.3276C284.084 65.1564 284.4 65.7017 284.793 65.9634C285.12 66.116 285.611 66.2251 286.265 66.2905C286.919 66.356 287.606 66.3451 288.326 66.2578C289.068 66.1706 289.711 65.9634 290.256 65.6362C290.802 65.3091 291.107 64.8402 291.172 64.2295C291.216 63.7715 291.096 63.3571 290.812 62.9863C290.529 62.5938 290.147 62.2557 289.667 61.9722C289.209 61.6668 288.697 61.416 288.13 61.2197C287.563 61.0016 287.007 60.8271 286.461 60.6963C285.916 60.5654 285.425 60.4891 284.989 60.4673C284.575 60.4237 284.28 60.4237 284.106 60.4673ZM324.476 84.9707C323.909 85.4505 323.636 86.2466 323.658 87.3589C323.702 88.4712 323.702 89.5617 323.658 90.6304C323.615 91.6991 323.2 92.4297 322.415 92.8223C321.739 93.084 320.692 93.3457 319.274 93.6074C317.879 93.8691 316.439 94 314.956 94C313.975 94 313.048 93.9128 312.175 93.7383C311.325 93.5638 310.638 93.2694 310.114 92.855C309.591 92.4406 309.329 91.8626 309.329 91.1211C309.329 88.8311 310.114 84.9707 311.685 79.54C313.277 74.0876 315.076 68.7223 317.083 63.4443C319.111 58.1445 320.888 54.2842 322.415 51.8633C323.048 50.9473 323.964 50.2712 325.163 49.835C326.363 49.377 327.628 49.1479 328.958 49.1479C330.288 49.1479 331.553 49.377 332.753 49.835C333.952 50.2712 334.868 50.9473 335.501 51.8633C337.028 54.2842 338.794 58.1445 340.801 63.4443C342.829 68.7223 344.628 74.0876 346.199 79.54C347.791 84.9707 348.587 88.8311 348.587 91.1211C348.587 91.8626 348.325 92.4406 347.802 92.855C347.278 93.2694 346.58 93.5638 345.708 93.7383C344.857 93.9128 343.941 94 342.96 94C341.477 94 340.027 93.8691 338.609 93.6074C337.213 93.3457 336.177 93.084 335.501 92.8223C334.716 92.4297 334.301 91.6991 334.258 90.6304C334.214 89.5617 334.203 88.4712 334.225 87.3589C334.269 86.2466 334.007 85.4505 333.44 84.9707C332.786 84.5345 331.87 84.251 330.692 84.1201C329.536 83.9674 328.369 83.9674 327.191 84.1201C326.035 84.251 325.13 84.5345 324.476 84.9707ZM328.958 71.4922C328.696 71.4922 328.358 72.1247 327.944 73.3896C327.529 74.6546 327.355 75.5488 327.42 76.0723C327.551 76.3122 327.835 76.4757 328.271 76.563C328.729 76.6502 329.176 76.6502 329.612 76.563C330.07 76.4757 330.365 76.3122 330.496 76.0723C330.539 75.8542 330.507 75.5052 330.397 75.0254C330.31 74.5456 330.179 74.033 330.005 73.4878C329.83 72.9425 329.645 72.4736 329.449 72.0811C329.252 71.6885 329.089 71.4922 328.958 71.4922ZM384.573 52.1904C385.707 51.5361 387.06 50.9691 388.63 50.4893C390.2 50.0094 391.705 49.7695 393.145 49.7695C394.213 49.7695 395.151 49.9549 395.958 50.3257C396.787 50.6965 397.354 51.318 397.659 52.1904C398.204 53.9352 398.619 56.6178 398.902 60.2383C399.186 63.8587 399.328 67.7191 399.328 71.8193C399.328 75.8978 399.186 79.7581 398.902 83.4004C398.619 87.0208 398.204 89.7035 397.659 91.4482C397.332 92.3643 396.667 93.0186 395.664 93.4111C394.682 93.8037 393.57 94 392.327 94C390.8 94 389.295 93.7601 387.812 93.2803C386.329 92.8005 385.249 92.1898 384.573 91.4482C384.224 90.9902 384.006 90.3141 383.919 89.4199C383.854 88.5039 383.864 87.4679 383.952 86.312C384.061 85.1561 384.202 83.9784 384.377 82.7788C384.551 81.5793 384.704 80.467 384.835 79.4419C384.966 78.395 385.02 77.5444 384.999 76.8901C384.977 76.214 384.835 75.8324 384.573 75.7451C384.377 75.7015 384.126 75.8542 383.821 76.2031C383.515 76.5303 383.177 76.9992 382.807 77.6099C382.436 78.2205 382.032 78.9185 381.596 79.7036C381.182 80.467 380.746 81.2739 380.288 82.1245C379.83 82.9533 379.361 83.7712 378.881 84.5781C378.401 85.3633 377.921 86.083 377.441 86.7373C376.983 87.3698 376.525 87.8823 376.067 88.2749C375.609 88.6457 375.173 88.8311 374.759 88.8311C374.104 88.8311 373.396 88.373 372.632 87.457C371.891 86.541 371.138 85.4287 370.375 84.1201C369.612 82.7897 368.881 81.4702 368.183 80.1616C367.485 78.853 366.853 77.7734 366.286 76.9229C365.74 76.0723 365.293 75.6797 364.944 75.7451C364.574 75.9196 364.443 76.6829 364.552 78.0352C364.683 79.3656 364.879 80.9468 365.141 82.7788C365.424 84.6108 365.588 86.3338 365.631 87.9478C365.697 89.5617 365.468 90.7285 364.944 91.4482C364.29 92.1898 363.221 92.8005 361.738 93.2803C360.255 93.7601 358.739 94 357.191 94C355.948 94 354.835 93.8037 353.854 93.4111C352.873 93.0186 352.207 92.3643 351.858 91.4482C351.313 89.7035 350.899 87.0208 350.615 83.4004C350.354 79.7581 350.223 75.8978 350.223 71.8193C350.223 67.7191 350.354 63.8587 350.615 60.2383C350.899 56.6178 351.313 53.9352 351.858 52.1904C352.186 51.318 352.753 50.6965 353.56 50.3257C354.367 49.9549 355.304 49.7695 356.373 49.7695C357.812 49.7695 359.317 50.0094 360.888 50.4893C362.48 50.9691 363.832 51.5361 364.944 52.1904C366.253 52.9974 367.551 54.2951 368.837 56.0835C370.124 57.8501 371.291 59.6276 372.338 61.416C373.385 63.1826 374.192 64.4694 374.759 65.2764C375.326 64.4694 376.133 63.1826 377.18 61.416C378.227 59.6276 379.393 57.8501 380.68 56.0835C381.989 54.2951 383.286 52.9974 384.573 52.1904Z" fill="white"/>
</g>
</svg>
