<svg width="68" height="72" viewBox="0 0 68 72" fill="none" xmlns="http://www.w3.org/2000/svg">
<g filter="url(#filter0_d_100_610)">
<circle cx="36" cy="32" r="32" fill="#276665"/>
<circle cx="36" cy="32" r="30.5" stroke="black" stroke-width="3"/>
</g>
<path fill-rule="evenodd" clip-rule="evenodd" d="M21.6317 14.7981C25.7039 19.7824 30.1749 26.0442 30.8982 27.0571C30.9367 27.1112 30.9644 27.1502 30.9812 27.1734C31.3667 27.7107 31.6849 28.1101 31.9266 28.4135C32.4632 29.0869 32.6223 29.2866 32.3022 29.4703C32.0441 29.6183 31.7775 29.6671 31.5117 29.6671C31.2111 29.6671 30.8723 29.5213 30.6258 29.2853C30.4514 29.1184 29.2586 27.3712 27.6341 24.8296C26.3913 22.8847 25.3512 21.2712 25.323 21.2443C25.2572 21.1817 25.2584 21.1839 27.5075 25.2422C28.9196 27.7905 29.8857 29.6739 29.8857 29.7943C29.8857 30.0394 29.8195 30.1683 29.5196 30.5053C29.0198 31.0677 28.7965 31.6995 28.6352 33.0069C28.4545 34.4724 27.9461 35.5079 26.5373 37.2796C25.7127 38.3169 25.5777 38.507 25.3697 38.9251C25.1075 39.4516 25.0355 39.7464 25.0063 40.4112C24.9754 41.1141 25.0355 41.5682 25.2484 42.2401C25.4349 42.8285 25.6293 43.2171 26.1269 43.9941C26.5562 44.6645 26.8032 45.1628 26.8032 45.3578C26.8032 45.5129 26.8326 45.5131 27.4978 45.3617C29.0898 44.999 30.3824 44.3615 31.1094 43.5801C31.5594 43.0963 31.665 42.8293 31.6684 42.1665C31.6708 41.733 31.6555 41.6423 31.5394 41.3929C31.3502 40.9868 31.006 40.6494 30.2471 40.1262C29.2525 39.4405 28.8278 38.8887 28.7104 38.1296C28.6141 37.5068 28.7257 37.0674 29.2759 35.9046C29.8455 34.701 29.9866 34.1881 30.082 32.9748C30.1437 32.191 30.2289 31.8819 30.4522 31.6339C30.6852 31.3751 30.8949 31.2875 31.4711 31.208C32.4109 31.0786 33.0091 30.8333 33.5011 30.3763C33.9277 29.9799 34.1061 29.5978 34.1336 29.0226L34.1544 28.5869L33.9159 28.3065C33.0526 27.2912 21.0535 14 21.0003 14C20.989 14 21.2731 14.3591 21.6317 14.7981ZM27.2881 41.2066C27.4834 40.8578 27.3794 40.4097 27.0529 40.1906C26.7443 39.9838 26.2651 40.0813 26.2651 40.3508C26.2651 40.4331 26.3103 40.4929 26.4118 40.5458C26.5832 40.6347 26.5956 40.7345 26.4609 40.9387C26.3244 41.1455 26.3354 41.3273 26.4918 41.4507C26.744 41.6499 27.1011 41.5404 27.2881 41.2066ZM33.1638 22.1934C32.7787 22.1331 32.7624 22.1259 32.9437 22.098C33.291 22.044 34.1112 22.1175 34.6765 22.2529C35.9962 22.5693 37.1969 23.3797 38.4787 24.8189L38.8192 25.2012L39.3064 25.1224C41.3586 24.7897 43.4463 25.054 45.1925 25.8675C45.6729 26.0913 46.4303 26.5369 46.5249 26.6513C46.5549 26.6878 46.6104 26.9226 46.6478 27.1734C46.7775 28.0403 46.7127 28.7049 46.4496 29.2014C46.3066 29.4714 46.2987 29.5571 46.3948 29.7883C46.4715 29.9728 46.6857 30.1093 46.8978 30.1089C47.3317 30.1084 47.7986 29.4009 48.0152 28.4167L48.1011 28.0257L48.2714 28.2202C49.2054 29.2875 49.9392 30.7431 50.0652 31.779L50.0979 32.0491L49.941 31.8036C49.6707 31.3811 49.3993 31.0933 49.0515 30.8614C48.4249 30.4431 47.7621 30.3009 46.0073 30.2076C44.4222 30.1234 43.5253 29.9869 42.6358 29.6942C41.1222 29.1966 40.3594 28.5338 38.5616 26.1552C37.7631 25.0988 37.2696 24.514 36.7785 24.0434C35.6632 22.9738 34.567 22.4128 33.1638 22.1934ZM46.8823 24.5523C46.9222 23.8443 47.0175 23.3774 47.2089 22.951C47.2846 22.7821 47.3556 22.6441 47.3665 22.6441C47.3775 22.6441 47.3446 22.7685 47.2933 22.9208C47.1542 23.3346 47.1313 23.9008 47.2272 24.5593C47.3488 25.3952 47.4181 25.5155 48.2938 26.4184C48.7046 26.8418 49.1825 27.3757 49.3557 27.6051L49.6707 28.0218L49.3557 27.7239C48.9705 27.3596 48.0848 26.649 47.8892 26.5476C47.7579 26.4794 47.7384 26.4806 47.6575 26.5618C47.583 26.6366 47.5672 26.7492 47.5568 27.2807C47.5407 28.1095 47.4288 28.6415 47.1584 29.1732C47.0122 29.4609 46.9891 29.3996 47.1214 29.0749C47.2203 28.8324 47.2303 28.7258 47.2296 27.9236C47.2281 26.3117 47.0382 25.9243 45.9254 25.2605C45.6437 25.0924 45.1791 24.8497 44.8933 24.7214C44.6076 24.5932 44.3806 24.4815 44.3888 24.4732C44.4203 24.4415 45.5056 24.7609 45.9424 24.9304C46.5921 25.1824 46.6993 25.2151 46.7782 25.1848C46.831 25.1644 46.8567 25.0089 46.8823 24.5523ZM32.751 23.3148C32.6462 24.5593 33.13 26.2239 33.912 27.3097C34.5183 28.1513 35.458 28.8055 36.1519 28.8685C36.606 28.9099 36.7425 28.7665 36.537 28.4638C36.2517 28.0437 35.9007 27.3967 35.8078 27.1196C35.7501 26.9475 35.625 26.4392 35.5293 25.9901C35.2031 24.4565 34.8824 23.8592 34.142 23.4057C33.872 23.2404 33.2956 23.024 32.9614 22.9625L32.7834 22.9298L32.751 23.3148ZM45.9339 35.3904C42.2793 33.9065 40.9921 32.6184 40.9921 30.4452C40.9921 30.1252 41.0032 29.8636 41.0164 29.8636C41.0298 29.8636 41.1711 29.9692 41.3306 30.0983C42.0716 30.6976 42.9015 30.9536 45.1989 31.2915C46.5507 31.4906 47.3114 31.6512 48.0133 31.886C50.2438 32.632 51.6239 34.1459 51.953 36.2081C52.0486 36.8073 51.9926 37.9309 51.8375 38.5231C51.7151 38.9909 51.3415 39.8339 51.2425 39.8663C51.215 39.8753 51.188 39.7691 51.181 39.6247C51.1435 38.8503 50.7555 38.0965 50.1039 37.5318C49.363 36.8897 48.3675 36.3787 45.9339 35.3904ZM43.1917 35.2271C43.243 35.3812 43.3225 35.732 43.3682 36.0068C43.6609 37.7637 42.7465 39.1832 40.9677 39.7332C40.7793 39.7913 40.0376 39.9378 39.3193 40.0584C37.8652 40.3025 37.2163 40.4755 36.5644 40.7922C36.102 41.0168 35.5421 41.3532 35.5754 41.3866C35.5861 41.3975 35.6917 41.372 35.8099 41.3302C36.6321 41.039 37.5471 40.8883 38.9372 40.8154C39.4889 40.7866 40.1164 40.7405 40.3317 40.7132C41.5702 40.5558 42.4286 40.1764 43.0961 39.4912C43.4675 39.1099 43.689 38.7547 43.8674 38.2539C43.9805 37.9361 43.9958 37.8181 43.9967 37.2552C43.9977 36.6816 43.9839 36.5767 43.8613 36.2239C43.7008 35.7613 43.5115 35.4143 43.2717 35.1428L43.0985 34.9468L43.1917 35.2271ZM45.0436 39.0073C44.5579 37.9546 44.4465 36.9383 44.7124 35.9906C44.741 35.8892 44.7866 35.8063 44.8143 35.8063C44.8418 35.8063 44.9563 35.8688 45.0689 35.9451C45.2925 36.097 45.7413 36.3529 46.9368 37.0102C48.4288 37.8305 49.2794 38.4656 49.8578 39.1915C50.3644 39.8269 50.6779 40.5507 50.8286 41.4334C50.9142 41.9334 50.8641 43.1365 50.7369 43.6399C50.3358 45.2274 49.4036 46.4742 48.0739 47.2019C47.8791 47.3084 47.7042 47.3959 47.6852 47.3964C47.6664 47.3968 47.7373 47.2148 47.843 46.9919C48.2903 46.0488 48.3412 45.1316 48.0031 44.1107C47.7959 43.4856 47.3738 42.7228 46.5213 41.4336C45.5303 39.9348 45.2873 39.5358 45.0436 39.0073ZM35.8973 42.46C34.3605 42.7118 32.6729 43.5321 31.3168 44.6869L30.9131 45.0307L31.268 45.0867C33.1195 45.3781 33.6183 45.6367 34.9026 46.971C35.6416 47.7387 35.8912 47.9096 36.5044 48.0675C37.4048 48.2993 38.2924 47.8734 38.5969 47.0633C38.7329 46.7013 38.7147 46.1019 38.5587 45.801C38.1875 45.0843 37.1059 44.8527 36.5831 45.3776C36.1473 45.8149 36.2743 46.4736 36.816 46.5868C36.94 46.6129 36.9366 46.6073 36.7845 46.538C36.5474 46.4298 36.4443 46.2799 36.4431 46.0414C36.4401 45.482 37.0748 45.168 37.6651 45.4366C38.0975 45.6335 38.2691 45.8905 38.2691 46.3411C38.2691 47.0351 37.6835 47.558 37.002 47.4725C36.6376 47.4268 36.192 47.1918 35.9532 46.9195C35.3521 46.234 35.5862 45.1523 36.4255 44.7372C37.0645 44.4214 37.9139 44.4992 38.5724 44.9341C39.3291 45.4339 39.6509 45.8907 40.3027 47.3898C40.5149 47.8779 40.788 48.4274 40.9094 48.6109C41.5269 49.5429 42.2666 50 43.1576 50C43.649 50 44.0187 49.9095 44.4839 49.6753C44.8294 49.5012 45.3193 49.1704 45.284 49.135C45.274 49.125 45.1307 49.1699 44.9655 49.2348C43.9926 49.6175 43.0036 49.5912 42.4293 49.1672C42.0676 48.9003 41.7758 48.3686 41.6259 47.7036C41.5999 47.5885 41.5143 47.0802 41.4355 46.5739C41.2358 45.2908 41.0441 44.714 40.597 44.0521C40.1395 43.3749 39.26 42.8066 38.2768 42.5528C37.6634 42.3944 36.56 42.3513 35.8973 42.46ZM33.7448 32.5392C33.8774 32.0448 34.3062 31.5733 34.7474 31.4367C35.0279 31.3499 35.6076 31.4053 35.8804 31.545C36.4085 31.816 36.7923 32.4329 36.7091 32.8783C36.6073 33.4214 35.7341 33.856 34.7295 33.8631C34.2163 33.8666 34.027 33.7971 33.831 33.5333C33.7096 33.3699 33.6638 32.8409 33.7448 32.5392ZM35.7454 31.7386C36.0089 31.9009 36.0765 32.1408 35.9218 32.3627C35.815 32.5157 35.4847 32.661 35.2432 32.661C34.8805 32.661 34.4848 32.4012 34.4848 32.1634C34.4848 31.6854 35.2437 31.4296 35.7454 31.7386Z" fill="black"/>
<defs>
<filter id="filter0_d_100_610" x="0" y="0" width="68" height="72" filterUnits="userSpaceOnUse" color-interpolation-filters="sRGB">
<feFlood flood-opacity="0" result="BackgroundImageFix"/>
<feColorMatrix in="SourceAlpha" type="matrix" values="0 0 0 0 0 0 0 0 0 0 0 0 0 0 0 0 0 0 127 0" result="hardAlpha"/>
<feOffset dx="-4" dy="8"/>
<feComposite in2="hardAlpha" operator="out"/>
<feColorMatrix type="matrix" values="0 0 0 0 0 0 0 0 0 0 0 0 0 0 0 0 0 0 1 0"/>
<feBlend mode="normal" in2="BackgroundImageFix" result="effect1_dropShadow_100_610"/>
<feBlend mode="normal" in="SourceGraphic" in2="effect1_dropShadow_100_610" result="shape"/>
</filter>
</defs>
</svg>
