<svg width="683" height="109" viewBox="0 0 683 109" fill="none" xmlns="http://www.w3.org/2000/svg">
<mask id="path-1-inside-1_66_217" fill="white">
<path d="M0 10C0 4.47715 4.47715 0 10 0H673C678.523 0 683 4.47715 683 10V99C683 104.523 678.523 109 673 109H10C4.47715 109 0 104.523 0 99V10Z"/>
</mask>
<path d="M0 10C0 4.47715 4.47715 0 10 0H673C678.523 0 683 4.47715 683 10V99C683 104.523 678.523 109 673 109H10C4.47715 109 0 104.523 0 99V10Z" fill="#276665"/>
<path d="M-4 10C-4 2.26801 2.26801 -4 10 -4H679C686.732 -4 693 2.26801 693 10H673C673 6.68629 673 4 673 4H10C6.68629 4 4 6.68629 4 10H-4ZM693 99C693 110.046 684.046 119 673 119H10C2.26801 119 -4 112.732 -4 105L4 99C4 99 6.68629 99 10 99H673H693ZM10 119C2.26801 119 -4 112.732 -4 105V10C-4 2.26801 2.26801 -4 10 -4V4C6.68629 4 4 6.68629 4 10V99C4 99 6.68629 99 10 99V119ZM679 -4C686.732 -4 693 2.26801 693 10V99C693 110.046 684.046 119 673 119V99V10C673 6.68629 673 4 673 4L679 -4Z" fill="black" mask="url(#path-1-inside-1_66_217)"/>
<path d="M54.731 45.5532C54.2293 44.6154 53.3896 44.1683 52.2119 44.2119C51.0342 44.2337 49.7365 44.4627 48.3188 44.8989C46.9012 45.3133 45.5817 45.6514 44.3604 45.9131C43.139 46.1748 42.2339 46.0549 41.645 45.5532C41.2306 45.117 40.8381 44.4736 40.4673 43.623C40.0965 42.7507 39.7912 41.7801 39.5513 40.7114C39.3332 39.6209 39.2241 38.5522 39.2241 37.5054C39.2241 36.3276 39.4095 35.2808 39.7803 34.3647C40.151 33.4269 40.7726 32.7944 41.645 32.4673C43.3898 31.922 46.0724 31.5186 49.6929 31.2568C53.3133 30.9733 57.1737 30.8315 61.2739 30.8315C65.3524 30.8315 69.2018 30.9733 72.8223 31.2568C76.4645 31.5186 79.158 31.922 80.9028 32.4673C81.7752 32.7944 82.3968 33.416 82.7676 34.332C83.1383 35.248 83.3237 36.2949 83.3237 37.4727C83.3237 38.1051 83.2801 38.7485 83.1929 39.4028C83.1056 40.0571 82.9857 40.7005 82.833 41.333C82.6803 41.9437 82.495 42.5216 82.2769 43.0669C82.0806 43.6121 81.8625 44.1029 81.6226 44.5391C81.4045 44.9535 81.1646 45.2915 80.9028 45.5532C80.314 46.0549 79.4089 46.1748 78.1875 45.9131C76.988 45.6514 75.6794 45.3133 74.2617 44.8989C72.8441 44.4627 71.5355 44.2337 70.3359 44.2119C69.1582 44.1683 68.3185 44.6154 67.8169 45.5532C67.2935 46.7528 67.0863 48.6066 67.1953 51.1147C67.3044 53.6011 67.5116 56.3055 67.8169 59.228C68.1222 62.1287 68.3294 64.8332 68.4385 67.3413C68.5475 69.8276 68.3403 71.6815 67.8169 72.9028C67.3153 73.8843 66.4538 74.6258 65.2324 75.1274C64.0111 75.6073 62.6916 75.8472 61.2739 75.8472C59.8781 75.8472 58.5695 75.6073 57.3481 75.1274C56.1268 74.6258 55.2544 73.8843 54.731 72.9028C54.2075 71.6815 54.0003 69.8276 54.1094 67.3413C54.2184 64.8332 54.4256 62.1287 54.731 59.228C55.0363 56.3055 55.2435 53.6011 55.3525 51.1147C55.4616 48.6066 55.2544 46.7528 54.731 45.5532ZM99.6812 47.2544C100.248 47.9741 101.153 48.4648 102.396 48.7266C103.64 48.9665 104.883 48.9665 106.126 48.7266C107.369 48.4648 108.274 47.9741 108.841 47.2544C109.147 46.7964 109.278 46.1312 109.234 45.2588C109.19 44.3864 109.07 43.4159 108.874 42.3472C108.678 41.2567 108.492 40.1771 108.318 39.1084C108.165 38.0179 108.111 37.0365 108.154 36.1641C108.198 35.2917 108.427 34.6265 108.841 34.1685C109.539 33.5142 110.662 32.9471 112.211 32.4673C113.759 31.9875 115.33 31.7476 116.922 31.7476C118.1 31.7476 119.146 31.9329 120.062 32.3037C121 32.6745 121.622 33.2961 121.927 34.1685C122.472 35.9132 122.887 38.5959 123.17 42.2163C123.454 45.8368 123.596 49.6971 123.596 53.7974C123.596 57.8758 123.454 61.7362 123.17 65.3784C122.887 68.9989 122.472 71.6815 121.927 73.4263C121.622 74.2987 121 74.9202 120.062 75.291C119.146 75.6618 118.089 75.8472 116.889 75.8472C115.842 75.8472 114.774 75.7381 113.683 75.52C112.614 75.2801 111.644 74.9748 110.771 74.604C109.921 74.2332 109.278 73.8407 108.841 73.4263C108.318 72.8374 108.078 71.9541 108.122 70.7764C108.187 69.5768 108.351 68.2791 108.612 66.8833C108.874 65.4875 109.07 64.2007 109.201 63.0229C109.332 61.8234 109.212 60.9292 108.841 60.3403C108.274 59.5988 107.369 59.1081 106.126 58.8682C104.883 58.6283 103.64 58.6283 102.396 58.8682C101.153 59.1081 100.248 59.5988 99.6812 60.3403C99.3976 60.7983 99.2668 61.4635 99.2886 62.3359C99.3322 63.2083 99.4521 64.1898 99.6484 65.2803C99.8447 66.349 100.019 67.4285 100.172 68.519C100.346 69.5877 100.412 70.5583 100.368 71.4307C100.346 72.3031 100.117 72.9683 99.6812 73.4263C99.245 73.8407 98.5907 74.2332 97.7183 74.604C96.8677 74.9748 95.8971 75.2801 94.8066 75.52C93.738 75.7381 92.6802 75.8472 91.6333 75.8472C90.4556 75.8472 89.3978 75.6618 88.46 75.291C87.5439 74.9202 86.9224 74.2987 86.5952 73.4263C86.05 71.6815 85.6356 68.9989 85.3521 65.3784C85.0903 61.7362 84.9595 57.8758 84.9595 53.7974C84.9595 49.6971 85.0903 45.8368 85.3521 42.2163C85.6356 38.5959 86.05 35.9132 86.5952 34.1685C86.9224 33.2961 87.5439 32.6745 88.46 32.3037C89.3978 31.9329 90.4556 31.7476 91.6333 31.7476C92.2658 31.7476 92.9092 31.7912 93.5635 31.8784C94.2178 31.9657 94.8503 32.0856 95.4609 32.2383C96.0934 32.391 96.6823 32.5763 97.2275 32.7944C97.7728 32.9907 98.2526 33.2088 98.667 33.4487C99.1032 33.6668 99.4412 33.9067 99.6812 34.1685C100.205 34.7573 100.444 35.6515 100.401 36.8511C100.357 38.0288 100.205 39.3156 99.9429 40.7114C99.6812 42.1073 99.4849 43.4049 99.354 44.6045C99.2231 45.7822 99.3322 46.6655 99.6812 47.2544ZM143.748 59.3916C144.969 59.457 146.921 59.348 149.604 59.0645C152.308 58.7591 155.002 58.5737 157.685 58.5083C160.367 58.4211 162.308 58.7155 163.508 59.3916C164.38 60.0023 165.056 60.9837 165.536 62.3359C166.038 63.6882 166.289 65.0949 166.289 66.5562C166.289 67.8866 166.06 69.1079 165.602 70.2202C165.165 71.3107 164.467 72.0632 163.508 72.4775C162.374 72.9355 160.694 73.4263 158.47 73.9497C156.245 74.4513 153.748 74.8984 150.978 75.291C148.208 75.6618 145.471 75.8472 142.767 75.8472C140.149 75.8472 137.761 75.5964 135.602 75.0947C133.443 74.5931 131.796 73.7207 130.662 72.4775C129.31 70.7764 128.285 68.1592 127.587 64.626C126.911 61.0928 126.573 57.3415 126.573 53.3721C126.573 49.3809 126.911 45.6187 127.587 42.0854C128.285 38.5522 129.31 35.946 130.662 34.2666C131.796 33.0234 133.443 32.151 135.602 31.6494C137.783 31.126 140.182 30.8643 142.799 30.8643C145.482 30.8643 148.208 31.0605 150.978 31.4531C153.748 31.8239 156.245 32.271 158.47 32.7944C160.694 33.3179 162.374 33.8086 163.508 34.2666C164.467 34.681 165.165 35.4443 165.602 36.5566C166.06 37.6471 166.289 38.8467 166.289 40.1553C166.289 41.6165 166.038 43.0342 165.536 44.4082C165.056 45.7604 164.38 46.7419 163.508 47.3525C162.308 48.0286 160.367 48.3231 157.685 48.2358C155.002 48.1486 152.308 47.9632 149.604 47.6797C146.921 47.3962 144.969 47.2871 143.748 47.3525C143.53 47.3962 143.377 47.5815 143.29 47.9087C143.225 48.214 143.225 48.5303 143.29 48.8574C143.377 49.1846 143.53 49.3809 143.748 49.4463C144.555 49.5335 145.853 49.4899 147.641 49.3154C149.43 49.1191 151.207 48.9883 152.974 48.9229C154.762 48.8574 156.049 49.0319 156.834 49.4463C157.576 49.9261 158.066 50.7004 158.306 51.769C158.546 52.8377 158.546 53.9064 158.306 54.9751C158.066 56.0438 157.576 56.818 156.834 57.2979C156.049 57.7122 154.762 57.8867 152.974 57.8213C151.207 57.734 149.43 57.6032 147.641 57.4287C145.853 57.2542 144.555 57.2106 143.748 57.2979C143.53 57.3633 143.377 57.5596 143.29 57.8867C143.225 58.1921 143.225 58.5083 143.29 58.8354C143.377 59.1408 143.53 59.3262 143.748 59.3916ZM200.606 55.4331C200.323 55.4331 200.17 55.793 200.148 56.5127C200.148 57.2324 200.214 58.1702 200.345 59.3262C200.476 60.4821 200.617 61.7362 200.77 63.0884C200.944 64.4406 201.086 65.771 201.195 67.0796C201.304 68.3882 201.326 69.5659 201.261 70.6128C201.195 71.6379 200.977 72.4012 200.606 72.9028C199.974 73.7098 198.938 74.3532 197.499 74.833C196.059 75.3128 194.576 75.5527 193.049 75.5527C191.763 75.5527 190.607 75.3455 189.582 74.9312C188.556 74.5168 187.869 73.8407 187.521 72.9028C186.953 71.0708 186.506 68.2355 186.179 64.397C185.874 60.5366 185.721 56.4691 185.721 52.1943C185.721 49.599 185.787 47.0799 185.917 44.6372C186.048 42.1945 186.245 40.0244 186.506 38.127C186.768 36.2077 187.106 34.7137 187.521 33.645C187.979 32.5763 188.731 31.813 189.778 31.355C190.825 30.897 192.024 30.668 193.376 30.668C195.078 30.668 196.822 30.9624 198.611 31.5513C200.421 32.1183 201.959 32.8162 203.224 33.645C203.769 34.0158 204.314 34.5501 204.859 35.248C205.405 35.9242 205.939 36.7093 206.462 37.6035C206.986 38.4977 207.498 39.4465 208 40.4497C208.502 41.453 208.981 42.4562 209.439 43.4595C209.919 44.4627 210.366 45.4224 210.781 46.3384C211.195 47.2544 211.577 48.0723 211.926 48.792C212.297 49.4899 212.624 50.0461 212.907 50.4604C213.213 50.8748 213.474 51.082 213.692 51.082C214.129 51.082 214.281 50.3296 214.15 48.8247C214.02 47.3198 213.812 45.5314 213.529 43.4595C213.245 41.3875 213.071 39.4355 213.005 37.6035C212.962 35.7497 213.191 34.4302 213.692 33.645C214.347 32.8381 215.394 32.1947 216.833 31.7148C218.272 31.2132 219.756 30.9624 221.282 30.9624C222.547 30.9624 223.692 31.1805 224.717 31.6167C225.742 32.0311 226.429 32.7072 226.778 33.645C227.367 35.4771 227.814 38.3232 228.12 42.1836C228.425 46.0221 228.578 50.0788 228.578 54.3535C228.578 56.9489 228.512 59.4679 228.381 61.9106C228.272 64.3534 228.076 66.5343 227.792 68.4536C227.531 70.3511 227.193 71.8341 226.778 72.9028C226.342 73.9497 225.601 74.7021 224.554 75.1602C223.507 75.6182 222.307 75.8472 220.955 75.8472C219.254 75.8472 217.498 75.5636 215.688 74.9966C213.878 74.4295 212.34 73.7316 211.075 72.9028C209.985 72.0959 208.905 70.7764 207.836 68.9443C206.79 67.1123 205.797 65.1603 204.859 63.0884C203.922 61.0164 203.082 59.228 202.34 57.7231C201.621 56.1965 201.043 55.4331 200.606 55.4331ZM246.702 34.79C247.247 36.4694 247.661 39.0648 247.945 42.5762C248.228 46.0876 248.37 49.8171 248.37 53.7646C248.37 57.734 248.228 61.4744 247.945 64.9858C247.661 68.4754 247.247 71.0599 246.702 72.7393C246.309 73.7861 245.48 74.5713 244.215 75.0947C242.972 75.5964 241.62 75.8472 240.159 75.8472C238.697 75.8472 237.334 75.5964 236.069 75.0947C234.826 74.5713 234.008 73.7861 233.616 72.7393C233.267 71.6488 232.961 70.133 232.7 68.1919C232.46 66.229 232.274 63.9935 232.144 61.4854C232.035 58.9772 231.98 56.4036 231.98 53.7646C231.98 51.1475 232.035 48.5848 232.144 46.0767C232.274 43.5685 232.46 41.333 232.7 39.3701C232.961 37.4072 233.267 35.8805 233.616 34.79C234.008 33.765 234.826 32.9907 236.069 32.4673C237.334 31.9438 238.697 31.6821 240.159 31.6821C241.62 31.6821 242.972 31.9438 244.215 32.4673C245.48 32.9907 246.309 33.765 246.702 34.79ZM290.18 56.7744C290.071 58.6283 289.493 60.8311 288.446 63.3828C287.421 65.9346 285.927 68.3118 283.964 70.5146C282.023 72.7174 279.635 74.2114 276.799 74.9966C274.444 75.5636 272.219 75.8472 270.125 75.8472C265.066 75.8472 260.9 74.3205 257.628 71.2671C254.357 68.1919 252.285 63.9172 251.413 58.4429C251.064 56.3055 250.889 54.1354 250.889 51.9326C250.889 48.9447 251.314 46.0439 252.165 43.2305C253.016 40.3952 254.477 37.8979 256.549 35.7388C258.621 33.5578 261.456 31.9329 265.055 30.8643C266.341 30.5153 267.672 30.3408 269.046 30.3408C271.707 30.3408 274.346 30.8534 276.963 31.8784C279.602 32.8817 281.783 34.1139 283.506 35.5752C285.251 37.0365 286.188 38.4977 286.319 39.959C286.363 41.7474 285.872 43.2632 284.847 44.5063C283.844 45.7277 282.557 46.6001 280.987 47.1235C279.417 47.6252 277.846 47.6797 276.276 47.2871C275.403 47.0036 274.531 46.5347 273.659 45.8804C272.786 45.2261 271.914 44.659 271.042 44.1792C270.169 43.6776 269.308 43.514 268.457 43.6885C266.799 44.2119 265.796 45.4333 265.447 47.3525C265.098 49.2718 264.967 51.3874 265.055 53.6992C265.076 56.0329 265.535 58.0067 266.429 59.6206C267.345 61.2345 268.806 62.096 270.812 62.2051C271.009 62.2051 271.26 62.1724 271.565 62.1069C271.87 62.0415 272.197 61.9434 272.546 61.8125C272.895 61.6816 273.244 61.529 273.593 61.3545C273.942 61.18 274.269 60.9946 274.575 60.7983C274.902 60.5802 275.185 60.373 275.425 60.1768C275.665 59.9587 275.84 59.7406 275.949 59.5225C274.313 59.348 273.113 59.0863 272.35 58.7373C271.543 58.3011 271.009 57.5269 270.747 56.4146C270.485 55.3022 270.485 54.1899 270.747 53.0776C271.009 51.9653 271.543 51.1911 272.35 50.7549C273.375 50.3187 274.815 50.0897 276.668 50.0679C278.522 50.0461 280.387 50.1442 282.263 50.3623C284.138 50.5586 285.621 50.7876 286.712 51.0493C287.737 51.3328 288.489 51.8672 288.969 52.6523C289.471 53.4375 289.798 54.2336 289.951 55.0405C290.103 55.8475 290.18 56.3927 290.18 56.6763V56.7744ZM307.617 47.2544C308.184 47.9741 309.089 48.4648 310.332 48.7266C311.575 48.9665 312.818 48.9665 314.062 48.7266C315.305 48.4648 316.21 47.9741 316.777 47.2544C317.082 46.7964 317.213 46.1312 317.169 45.2588C317.126 44.3864 317.006 43.4159 316.81 42.3472C316.613 41.2567 316.428 40.1771 316.253 39.1084C316.101 38.0179 316.046 37.0365 316.09 36.1641C316.133 35.2917 316.362 34.6265 316.777 34.1685C317.475 33.5142 318.598 32.9471 320.146 32.4673C321.695 31.9875 323.265 31.7476 324.857 31.7476C326.035 31.7476 327.082 31.9329 327.998 32.3037C328.936 32.6745 329.557 33.2961 329.863 34.1685C330.408 35.9132 330.822 38.5959 331.106 42.2163C331.389 45.8368 331.531 49.6971 331.531 53.7974C331.531 57.8758 331.389 61.7362 331.106 65.3784C330.822 68.9989 330.408 71.6815 329.863 73.4263C329.557 74.2987 328.936 74.9202 327.998 75.291C327.082 75.6618 326.024 75.8472 324.825 75.8472C323.778 75.8472 322.709 75.7381 321.619 75.52C320.55 75.2801 319.579 74.9748 318.707 74.604C317.856 74.2332 317.213 73.8407 316.777 73.4263C316.253 72.8374 316.014 71.9541 316.057 70.7764C316.123 69.5768 316.286 68.2791 316.548 66.8833C316.81 65.4875 317.006 64.2007 317.137 63.0229C317.268 61.8234 317.148 60.9292 316.777 60.3403C316.21 59.5988 315.305 59.1081 314.062 58.8682C312.818 58.6283 311.575 58.6283 310.332 58.8682C309.089 59.1081 308.184 59.5988 307.617 60.3403C307.333 60.7983 307.202 61.4635 307.224 62.3359C307.268 63.2083 307.388 64.1898 307.584 65.2803C307.78 66.349 307.955 67.4285 308.107 68.519C308.282 69.5877 308.347 70.5583 308.304 71.4307C308.282 72.3031 308.053 72.9683 307.617 73.4263C307.181 73.8407 306.526 74.2332 305.654 74.604C304.803 74.9748 303.833 75.2801 302.742 75.52C301.674 75.7381 300.616 75.8472 299.569 75.8472C298.391 75.8472 297.333 75.6618 296.396 75.291C295.479 74.9202 294.858 74.2987 294.531 73.4263C293.986 71.6815 293.571 68.9989 293.288 65.3784C293.026 61.7362 292.895 57.8758 292.895 53.7974C292.895 49.6971 293.026 45.8368 293.288 42.2163C293.571 38.5959 293.986 35.9132 294.531 34.1685C294.858 33.2961 295.479 32.6745 296.396 32.3037C297.333 31.9329 298.391 31.7476 299.569 31.7476C300.201 31.7476 300.845 31.7912 301.499 31.8784C302.153 31.9657 302.786 32.0856 303.396 32.2383C304.029 32.391 304.618 32.5763 305.163 32.7944C305.708 32.9907 306.188 33.2088 306.603 33.4487C307.039 33.6668 307.377 33.9067 307.617 34.1685C308.14 34.7573 308.38 35.6515 308.336 36.8511C308.293 38.0288 308.14 39.3156 307.878 40.7114C307.617 42.1073 307.42 43.4049 307.29 44.6045C307.159 45.7822 307.268 46.6655 307.617 47.2544ZM348.707 45.5532C348.205 44.6154 347.365 44.1683 346.188 44.2119C345.01 44.2337 343.712 44.4627 342.294 44.8989C340.877 45.3133 339.557 45.6514 338.336 45.9131C337.115 46.1748 336.209 46.0549 335.621 45.5532C335.206 45.117 334.814 44.4736 334.443 43.623C334.072 42.7507 333.767 41.7801 333.527 40.7114C333.309 39.6209 333.2 38.5522 333.2 37.5054C333.2 36.3276 333.385 35.2808 333.756 34.3647C334.127 33.4269 334.748 32.7944 335.621 32.4673C337.365 31.922 340.048 31.5186 343.668 31.2568C347.289 30.9733 351.149 30.8315 355.25 30.8315C359.328 30.8315 363.177 30.9733 366.798 31.2568C370.44 31.5186 373.134 31.922 374.878 32.4673C375.751 32.7944 376.372 33.416 376.743 34.332C377.114 35.248 377.299 36.2949 377.299 37.4727C377.299 38.1051 377.256 38.7485 377.168 39.4028C377.081 40.0571 376.961 40.7005 376.809 41.333C376.656 41.9437 376.471 42.5216 376.252 43.0669C376.056 43.6121 375.838 44.1029 375.598 44.5391C375.38 44.9535 375.14 45.2915 374.878 45.5532C374.29 46.0549 373.384 46.1748 372.163 45.9131C370.964 45.6514 369.655 45.3133 368.237 44.8989C366.82 44.4627 365.511 44.2337 364.312 44.2119C363.134 44.1683 362.294 44.6154 361.792 45.5532C361.269 46.7528 361.062 48.6066 361.171 51.1147C361.28 53.6011 361.487 56.3055 361.792 59.228C362.098 62.1287 362.305 64.8332 362.414 67.3413C362.523 69.8276 362.316 71.6815 361.792 72.9028C361.291 73.8843 360.429 74.6258 359.208 75.1274C357.987 75.6073 356.667 75.8472 355.25 75.8472C353.854 75.8472 352.545 75.6073 351.324 75.1274C350.102 74.6258 349.23 73.8843 348.707 72.9028C348.183 71.6815 347.976 69.8276 348.085 67.3413C348.194 64.8332 348.401 62.1287 348.707 59.228C349.012 56.3055 349.219 53.6011 349.328 51.1147C349.437 48.6066 349.23 46.7528 348.707 45.5532ZM415.216 50.5259C415.587 50.5259 415.859 49.828 416.034 48.4321C416.23 47.0363 416.415 45.3787 416.59 43.4595C416.786 41.5402 417.059 39.73 417.408 38.0288C417.757 36.3276 418.28 35.1063 418.978 34.3647C419.698 33.6886 420.646 33.187 421.824 32.8599C423.002 32.5109 424.234 32.3364 425.521 32.3364C426.808 32.3364 428.04 32.5109 429.218 32.8599C430.396 33.187 431.344 33.6886 432.064 34.3647C432.762 35.1063 433.285 36.3276 433.634 38.0288C433.983 39.73 434.245 41.5402 434.419 43.4595C434.616 45.3787 434.801 47.0363 434.976 48.4321C435.172 49.828 435.455 50.5259 435.826 50.5259C436.132 50.5259 436.415 50.057 436.677 49.1191C436.938 48.1813 437.211 47.0145 437.495 45.6187C437.778 44.201 438.094 42.7397 438.443 41.2349C438.792 39.7082 439.185 38.3232 439.621 37.0801C440.079 35.8369 440.613 34.9318 441.224 34.3647C442.14 33.6014 443.427 32.9689 445.084 32.4673C446.742 31.9438 448.345 31.6821 449.894 31.6821C451.115 31.6821 452.151 31.8893 453.001 32.3037C453.874 32.6963 454.31 33.3833 454.31 34.3647C454.31 36.5457 453.514 40.3625 451.922 45.8149C450.352 51.2674 448.552 56.6654 446.524 62.0088C444.517 67.3304 442.751 71.2017 441.224 73.6226C440.701 74.3859 439.959 74.9312 439 75.2583C438.062 75.5854 437.037 75.749 435.924 75.749C434.943 75.749 433.94 75.6509 432.915 75.4546C431.911 75.2365 430.995 74.9748 430.167 74.6694C429.338 74.3423 428.662 73.9933 428.138 73.6226C427.615 73.23 427.211 72.6084 426.928 71.7578C426.666 70.8854 426.47 69.9258 426.339 68.8789C426.208 67.8102 426.11 66.7852 426.044 65.8037C426.001 64.8223 425.946 64.0153 425.881 63.3828C425.815 62.7285 425.695 62.4014 425.521 62.4014C425.303 62.4014 425.161 62.8921 425.096 63.8735C425.03 64.8332 424.954 65.9782 424.867 67.3086C424.779 68.639 424.583 69.904 424.278 71.1035C423.994 72.2812 423.536 73.1209 422.904 73.6226C422.097 74.1896 420.963 74.6912 419.501 75.1274C418.062 75.5418 416.601 75.749 415.118 75.749C414.005 75.749 412.969 75.5854 412.01 75.2583C411.072 74.9312 410.341 74.3859 409.818 73.6226C408.291 71.2017 406.514 67.3304 404.485 62.0088C402.479 56.6654 400.68 51.2674 399.087 45.8149C397.517 40.3625 396.732 36.5457 396.732 34.3647C396.732 33.3833 397.157 32.6963 398.008 32.3037C398.88 31.8893 399.927 31.6821 401.148 31.6821C402.697 31.6821 404.3 31.9438 405.958 32.4673C407.615 32.9689 408.902 33.6014 409.818 34.3647C410.254 34.7573 410.647 35.3353 410.996 36.0986C411.345 36.862 411.661 37.7453 411.944 38.7485C412.25 39.73 412.511 40.766 412.729 41.8564C412.969 42.9251 413.188 43.972 413.384 44.9971C413.602 46.0221 413.809 46.9491 414.005 47.7778C414.202 48.6066 414.398 49.2718 414.594 49.7734C414.791 50.2751 414.998 50.5259 415.216 50.5259ZM470.667 34.79C471.213 36.4694 471.627 39.0648 471.911 42.5762C472.194 46.0876 472.336 49.8171 472.336 53.7646C472.336 57.734 472.194 61.4744 471.911 64.9858C471.627 68.4754 471.213 71.0599 470.667 72.7393C470.275 73.7861 469.446 74.5713 468.181 75.0947C466.938 75.5964 465.586 75.8472 464.125 75.8472C462.663 75.8472 461.3 75.5964 460.035 75.0947C458.792 74.5713 457.974 73.7861 457.582 72.7393C457.233 71.6488 456.927 70.133 456.666 68.1919C456.426 66.229 456.24 63.9935 456.109 61.4854C456 58.9772 455.946 56.4036 455.946 53.7646C455.946 51.1475 456 48.5848 456.109 46.0767C456.24 43.5685 456.426 41.333 456.666 39.3701C456.927 37.4072 457.233 35.8805 457.582 34.79C457.974 33.765 458.792 32.9907 460.035 32.4673C461.3 31.9438 462.663 31.6821 464.125 31.6821C465.586 31.6821 466.938 31.9438 468.181 32.4673C469.446 32.9907 470.275 33.765 470.667 34.79ZM476.622 46.731C475.836 46.0767 475.204 45.0407 474.724 43.623C474.244 42.2054 474.004 40.7332 474.004 39.2065C474.004 37.9416 474.212 36.7965 474.626 35.7715C475.04 34.7464 475.706 34.0376 476.622 33.645C478.126 33.0998 480.449 32.6963 483.59 32.4346C486.73 32.151 490.078 32.0093 493.633 32.0093C497.167 32.0093 500.503 32.151 503.644 32.4346C506.806 32.6963 509.14 33.0998 510.645 33.645C511.517 33.994 512.139 34.5938 512.51 35.4443C512.881 36.2949 513.066 37.2764 513.066 38.3887C513.066 39.8063 512.826 41.2785 512.346 42.8052C511.888 44.3319 511.321 45.6405 510.645 46.731C509.86 47.8869 508.573 49.1737 506.785 50.5913C504.996 51.9871 503.088 53.383 501.06 54.7788C499.053 56.1528 497.308 57.4069 495.825 58.541C494.364 59.6751 493.633 60.5366 493.633 61.1255C493.633 61.4308 493.83 61.638 494.222 61.7471C494.637 61.8343 495.193 61.867 495.891 61.8452C496.589 61.8016 497.374 61.7253 498.246 61.6162C499.14 61.4854 500.078 61.3436 501.06 61.1909C502.063 61.0382 503.044 60.9074 504.004 60.7983C504.985 60.6675 505.912 60.5802 506.785 60.5366C507.657 60.493 508.42 60.5148 509.075 60.6021C509.751 60.6893 510.274 60.8638 510.645 61.1255C511.43 61.7798 512.063 62.8267 512.542 64.2661C513.022 65.6838 513.262 67.145 513.262 68.6499C513.262 69.9149 513.055 71.0599 512.641 72.085C512.226 73.11 511.561 73.8188 510.645 74.2114C509.14 74.7567 506.806 75.1711 503.644 75.4546C500.503 75.7163 497.167 75.8472 493.633 75.8472C490.078 75.8472 486.73 75.7163 483.59 75.4546C480.449 75.1711 478.126 74.7567 476.622 74.2114C475.749 73.8625 475.128 73.2627 474.757 72.4121C474.386 71.5615 474.201 70.591 474.201 69.5005C474.201 68.061 474.43 66.578 474.888 65.0513C475.368 63.5246 475.945 62.216 476.622 61.1255C476.905 60.6675 477.287 60.1877 477.767 59.686C478.268 59.1626 478.835 58.6392 479.468 58.1157C480.122 57.5705 480.809 57.0143 481.529 56.4473C482.27 55.8802 483.034 55.3241 483.819 54.7788C484.604 54.2118 485.389 53.6556 486.174 53.1104C486.959 52.5651 487.712 52.0308 488.432 51.5073C489.173 50.9839 489.86 50.4932 490.493 50.0352C491.125 49.5553 491.67 49.1191 492.128 48.7266C492.608 48.3122 492.979 47.9414 493.241 47.6143C493.502 47.2653 493.633 46.9709 493.633 46.731C493.633 46.382 493.372 46.1639 492.848 46.0767C492.325 45.9894 491.627 45.9894 490.754 46.0767C489.882 46.1421 488.901 46.262 487.81 46.4365C486.741 46.5892 485.64 46.7528 484.506 46.9272C483.372 47.0799 482.281 47.1999 481.234 47.2871C480.188 47.3525 479.261 47.3525 478.454 47.2871C477.647 47.2217 477.036 47.0363 476.622 46.731ZM530.045 66.8179C529.478 67.2977 529.205 68.0938 529.227 69.2061C529.271 70.3184 529.271 71.4089 529.227 72.4775C529.183 73.5462 528.769 74.2769 527.984 74.6694C527.308 74.9312 526.261 75.1929 524.843 75.4546C523.447 75.7163 522.008 75.8472 520.525 75.8472C519.543 75.8472 518.617 75.7599 517.744 75.5854C516.894 75.411 516.207 75.1165 515.683 74.7021C515.16 74.2878 514.898 73.7098 514.898 72.9683C514.898 70.6782 515.683 66.8179 517.253 61.3872C518.846 55.9347 520.645 50.5695 522.651 45.2915C524.68 39.9917 526.457 36.1313 527.984 33.7104C528.616 32.7944 529.532 32.1183 530.732 31.6821C531.931 31.2241 533.196 30.9951 534.527 30.9951C535.857 30.9951 537.122 31.2241 538.322 31.6821C539.521 32.1183 540.437 32.7944 541.07 33.7104C542.597 36.1313 544.363 39.9917 546.37 45.2915C548.398 50.5695 550.197 55.9347 551.768 61.3872C553.36 66.8179 554.156 70.6782 554.156 72.9683C554.156 73.7098 553.894 74.2878 553.371 74.7021C552.847 75.1165 552.149 75.411 551.277 75.5854C550.426 75.7599 549.51 75.8472 548.529 75.8472C547.046 75.8472 545.595 75.7163 544.178 75.4546C542.782 75.1929 541.746 74.9312 541.07 74.6694C540.285 74.2769 539.87 73.5462 539.827 72.4775C539.783 71.4089 539.772 70.3184 539.794 69.2061C539.838 68.0938 539.576 67.2977 539.009 66.8179C538.354 66.3817 537.438 66.0981 536.261 65.9673C535.105 65.8146 533.938 65.8146 532.76 65.9673C531.604 66.0981 530.699 66.3817 530.045 66.8179ZM534.527 53.3394C534.265 53.3394 533.927 53.9718 533.513 55.2368C533.098 56.5018 532.924 57.396 532.989 57.9194C533.12 58.1593 533.404 58.3229 533.84 58.4102C534.298 58.4974 534.745 58.4974 535.181 58.4102C535.639 58.3229 535.934 58.1593 536.064 57.9194C536.108 57.7013 536.075 57.3524 535.966 56.8726C535.879 56.3927 535.748 55.8802 535.574 55.335C535.399 54.7897 535.214 54.3208 535.018 53.9282C534.821 53.5356 534.658 53.3394 534.527 53.3394ZM576.893 60.3403C575.519 60.384 574.417 60.3949 573.588 60.373C572.76 60.3512 572.345 60.3403 572.345 60.3403C572.345 60.3403 572.411 60.722 572.542 61.4854C572.672 62.2269 572.803 63.1756 572.934 64.3315C573.087 65.4657 573.196 66.6543 573.261 67.8975C573.327 69.1188 573.294 70.2311 573.163 71.2344C573.032 72.2376 572.76 72.9683 572.345 73.4263C571.909 73.8407 571.255 74.2332 570.382 74.604C569.532 74.9748 568.561 75.2801 567.471 75.52C566.402 75.7381 565.344 75.8472 564.297 75.8472C563.098 75.8472 562.029 75.6618 561.091 75.291C560.175 74.9202 559.565 74.2987 559.259 73.4263C558.801 72.0304 558.3 69.9367 557.754 67.145C557.231 64.3534 556.773 61.2236 556.38 57.7559C555.988 54.2663 555.792 50.8857 555.792 47.6143C555.792 44.4518 556.053 41.6493 556.577 39.2065C557.1 36.7638 557.994 35.0845 559.259 34.1685C560.524 33.3397 562.487 32.6527 565.148 32.1074C567.831 31.5622 570.797 31.2896 574.046 31.2896C576.838 31.2896 579.652 31.5513 582.487 32.0747C585.344 32.5981 587.961 33.4705 590.338 34.6919C592.716 35.9132 594.635 37.5599 596.096 39.6318C597.579 41.682 598.386 44.2228 598.517 47.2544V47.5488C598.517 49.599 598.037 51.3547 597.078 52.8159C596.118 54.2554 594.864 55.4549 593.315 56.4146C594.711 58.8354 595.889 61.1582 596.849 63.3828C597.83 65.6074 598.386 67.3631 598.517 68.6499V68.8462C598.517 70.0021 598.037 71.1144 597.078 72.1831C596.14 73.2518 594.973 74.1351 593.577 74.833C592.203 75.5091 590.884 75.8472 589.619 75.8472C588.703 75.8472 587.885 75.6291 587.165 75.1929C586.249 74.5604 585.18 73.4699 583.959 71.9214C582.759 70.3511 581.527 68.5409 580.262 66.4907C579.019 64.4406 577.896 62.3905 576.893 60.3403ZM573.883 42.3145C573.534 42.4671 573.348 42.936 573.327 43.7212C573.305 44.5063 573.403 45.3242 573.621 46.1748C573.861 47.0036 574.177 47.5488 574.57 47.8105C574.897 47.9632 575.388 48.0723 576.042 48.1377C576.696 48.2031 577.383 48.1922 578.103 48.105C578.845 48.0177 579.488 47.8105 580.033 47.4834C580.578 47.1562 580.884 46.6873 580.949 46.0767C580.993 45.6187 580.873 45.2043 580.589 44.8335C580.306 44.4409 579.924 44.1029 579.444 43.8193C578.986 43.514 578.474 43.2632 577.907 43.0669C577.34 42.8488 576.784 42.6743 576.238 42.5435C575.693 42.4126 575.202 42.3363 574.766 42.3145C574.352 42.2708 574.057 42.2708 573.883 42.3145ZM606.5 74.4404C604.973 73.3717 603.828 70.7764 603.064 66.6543C602.301 62.5104 601.919 58.0067 601.919 53.1431C601.919 51.7472 601.952 50.3732 602.018 49.021C602.083 47.647 602.17 46.3057 602.279 44.9971C602.41 43.6885 602.563 42.4453 602.737 41.2676C602.934 40.0898 603.152 38.9993 603.392 37.9961C603.653 36.971 603.937 36.055 604.242 35.248C604.569 34.4193 604.918 33.7323 605.289 33.187C605.66 32.6418 606.063 32.2383 606.5 31.9766C606.936 31.7367 607.492 31.5295 608.168 31.355C608.844 31.1805 609.607 31.0496 610.458 30.9624C611.309 30.8534 612.236 30.7988 613.239 30.7988C615.987 30.7988 619.062 31.1914 622.464 31.9766C625.867 32.7617 629.127 34.0485 632.246 35.8369C635.365 37.6253 637.928 39.9917 639.934 42.936C641.962 45.8804 643.031 49.5008 643.14 53.7974V54.0591C643.14 57.3742 642.508 60.2531 641.243 62.6958C639.978 65.1167 638.298 67.1777 636.205 68.8789C634.133 70.5583 631.832 71.9105 629.302 72.9355C626.794 73.9606 624.231 74.7021 621.614 75.1602C619.018 75.6182 616.608 75.8472 614.384 75.8472C613.206 75.8472 612.105 75.7926 611.08 75.6836C610.076 75.5527 609.182 75.3892 608.397 75.1929C607.634 74.9748 607.001 74.724 606.5 74.4404ZM617.753 59.8496C618.277 60.1331 619.138 60.2749 620.338 60.2749C621.559 60.2749 622.846 60.0568 624.198 59.6206C625.55 59.1844 626.706 58.4647 627.666 57.4614C628.626 56.4582 629.127 55.106 629.171 53.4048C629.127 52.0526 628.778 50.9185 628.124 50.0024C627.47 49.0646 626.641 48.3231 625.638 47.7778C624.656 47.2108 623.631 46.8182 622.562 46.6001C621.494 46.3602 620.523 46.2511 619.651 46.2729C618.778 46.2948 618.146 46.4147 617.753 46.6328C617.274 46.9382 616.914 47.7342 616.674 49.021C616.434 50.3078 616.314 51.7036 616.314 53.2085C616.314 54.7134 616.434 56.1092 616.674 57.396C616.914 58.6828 617.274 59.5007 617.753 59.8496Z" fill="white"/>
</svg>
